<svg id="Capa_1" enable-background="new 0 0 512 512" height="512" viewBox="0 0 512 512" width="512" xmlns="http://www.w3.org/2000/svg"><g><g><circle cx="256" cy="256" fill="#ffe157" r="256"/></g><g><path d="m256 512c60.092 0 115.341-20.714 159.017-55.379-27.822-21.179-62.418-36.854-100.974-44.8-4.67-.962-8.043-5.036-8.043-9.803v-97.748h-100v97.748c0 4.768-3.373 8.841-8.043 9.803-38.556 7.946-73.151 23.621-100.974 44.8 43.676 34.665 98.925 55.379 159.017 55.379z" fill="#fbbd94"/></g><g><path d="m307.111 406.57c-.708-1.373-1.111-2.92-1.111-4.553v-97.747h-100v97.748c0 4.768-3.373 8.841-8.043 9.803-38.556 7.946-73.151 23.621-100.974 44.8 12.78 10.143 26.557 19.081 41.15 26.666 38.02-42.924 99.051-72.212 168.978-76.717z" fill="#fbad7d"/></g><g><path d="m311.734 411.042c-7.36 23.788-29.528 41.07-55.734 41.07s-48.374-17.282-55.734-41.07c-.724.344-1.495.611-2.309.779-38.556 7.946-73.151 23.621-100.974 44.8 43.676 34.665 98.925 55.379 159.017 55.379s115.341-20.714 159.017-55.379c-27.822-21.179-62.418-36.854-100.974-44.8-.814-.168-1.585-.435-2.309-.779z" fill="#132f3b"/></g><g><path d="m101.528 460.14c.436.33.878.653 1.315.98 1.118.836 2.241 1.667 3.373 2.485.477.345.958.685 1.438 1.026 1.144.814 2.293 1.621 3.451 2.417.426.293.852.584 1.28.875 1.304.885 2.617 1.759 3.939 2.621.277.181.553.364.831.543 6.78 4.383 13.779 8.457 20.978 12.199 19.018-21.471 43.793-39.53 72.56-52.781-4.625-5.699-8.205-12.281-10.427-19.463-.329.156-.67.293-1.019.414-.062.022-.124.044-.186.064-.36.117-.726.223-1.104.301-21.688 4.47-42.122 11.385-60.803 20.35-6.227 2.988-12.259 6.204-18.078 9.633-7.758 4.572-15.137 9.523-22.093 14.817 1.501 1.191 3.017 2.362 4.545 3.519z" fill="#0a181e"/></g><g><path d="m256 28.973c133.07 0 192 92.027 200 123.027s-73 29.797-73 29.797z" fill="#0a181e"/></g><g><path d="m256 399.27c-67.24 0-115.92-21.313-144.687-63.345-21.555-31.495-31.595-73.017-31.595-130.671 0-97.202 79.08-176.281 176.282-176.281s176.281 79.079 176.281 176.281c0 57.654-10.039 99.176-31.595 130.671-28.766 42.032-77.446 63.345-144.686 63.345z" fill="#132f3b"/></g><g><path d="m141.313 335.925c-21.555-31.495-31.595-73.017-31.595-130.671 0-92.149 71.075-167.998 161.282-175.636-4.946-.419-9.947-.645-15-.645-97.202 0-176.282 79.079-176.282 176.281 0 57.654 10.04 99.176 31.595 130.671 28.767 42.032 77.447 63.345 144.687 63.345 5.112 0 10.103-.138 15-.385-59.514-2.991-103.107-24.124-129.687-62.96z" fill="#0a181e"/></g><g><path d="m256 399.27c-32.142 0-55.412-21.313-69.164-63.345-10.304-31.495-15.103-73.017-15.103-130.671 0-97.202 37.802-176.281 84.267-176.281s84.266 79.079 84.266 176.281c0 57.654-4.799 99.176-15.103 130.671-13.751 42.032-37.021 63.345-69.163 63.345z" fill="#0a181e"/></g><g><path d="m299.396 293.231c-27.775-11.565-59.017-11.565-86.792 0-37.239 15.506-78.27-11.855-78.27-52.193 0-31.225 25.313-56.537 56.537-56.537h130.258c31.225 0 56.537 25.313 56.537 56.537 0 40.337-41.031 67.699-78.27 52.193z" fill="#fcd2ac"/></g><g><g><path d="m154.334 241.037c0-31.225 25.313-56.537 56.537-56.537h-20c-31.225 0-56.537 25.313-56.537 56.537 0 36.113 32.886 61.819 66.496 55.683-25.546-4.667-46.496-26.86-46.496-55.683z" fill="#fbbd94"/></g></g><g><path d="m234.535 184.5 5.409 76.604c.595 8.429 7.607 14.963 16.057 14.963s15.461-6.534 16.057-14.963l5.409-76.604z" fill="#fbbd94"/></g><g><path d="m345.638 215.642c-4.368-4.476-10.597-7.127-17.436-6.702-11.139.691-20.204 9.757-20.896 20.896-.425 6.84 2.227 13.069 6.702 17.436 5.812 5.672 15.62 1.376 15.62-6.745 0-5.116 4.148-9.264 9.264-9.264 8.121-.001 12.418-9.809 6.746-15.621z" fill="#0a181e"/></g><g><path d="m166.362 215.642c4.368-4.476 10.597-7.127 17.436-6.702 11.139.691 20.204 9.757 20.896 20.896.425 6.84-2.227 13.069-6.702 17.436-5.812 5.672-15.62 1.376-15.62-6.745 0-5.116-4.148-9.264-9.264-9.264-8.121-.001-12.418-9.809-6.746-15.621z" fill="#0a181e"/></g></g></svg>