<svg id="Layer_1" enable-background="new 0 0 512 512" height="512" viewBox="0 0 512 512" width="512" xmlns="http://www.w3.org/2000/svg"><g><path d="m453.869 411.474c29.627-40.508 47.131-90.443 47.131-144.474 0-135.31-109.69-245-245-245s-245 109.69-245 245c0 54.031 17.504 103.966 47.131 144.474z" fill="#e80054"/><path d="m256.001 367.986 53.945-68.342c-5.328-9.411-6.909-22.391-7.242-32.056-4.717 5.495-9.668 10.091-14.399 13.764-9.217 7.157-20.59 11.045-32.305 11.045-11.714 0-23.087-3.888-32.304-11.045-4.73-3.674-9.682-8.27-14.399-13.764-.333 9.664-1.913 22.644-7.242 32.055z" fill="#fcad6d"/><path d="m256.456 292.388c-.152.001-.303.009-.455.009-11.714 0-23.087-3.888-32.304-11.045-4.73-3.673-9.682-8.27-14.399-13.764-.333 9.664-1.914 22.644-7.242 32.055l36.116 45.756c13.234-17.178 17.14-40.108 18.284-53.011z" fill="#fd995b"/><path d="m186.958 455.456 52.449-66.448-54.199-68.664v137.945z" fill="#e9efff"/><path d="m221.03 365.727-35.822 42.86v49.702l1.75-2.833 52.449-66.448z" fill="#dae2fe"/><path d="m185.208 499.199v2.4c22.414 6.755 46.176 10.401 70.792 10.401 24.403 0 47.965-3.585 70.208-10.227v-180.687l-139.25 176.415z" fill="#e9efff"/><path d="m455.327 409.474c-4.778-31.874-18.651-57.97-45.093-69.231v-.001l-57.976-26.218v178.332c41.502-17.751 77.108-46.626 103.069-82.882z" fill="#2d3c6b"/><ellipse cx="256.001" cy="33.831" fill="#2d3c6b" rx="33.83" ry="33.831" transform="matrix(.924 -.383 .383 .924 6.541 100.543)"/><path d="m256.001 0c-18.684 0-33.831 15.146-33.831 33.831 0 13.04 7.383 24.35 18.192 29.997l15.638-8.516v-30.808c-13.218-13.219.001-24.504.001-24.504z" fill="#1e2f59"/><path d="m256.001 24.504c-7.271 0-13.219 5.949-13.219 13.219v16.719c0 7.271 5.949 13.219 13.219 13.219 7.271 0 13.219-5.949 13.219-13.219v-16.719c0-7.271-5.948-13.219-13.219-13.219z" fill="#e9efff"/><path d="m256 45.655c-46.954.447-97.117 30.481-84.621 91.681 0 0 1.155 15.817 1.516 28.325 2.948-.417 7.56.856 9.971 2.024.457-2.844 1.196-7.977 2.235-10.688.836-2.18 1.889-4.389 3.217-6.471 2.248-3.527 3.237-7.7 2.936-11.86-.867-11.965-1.568-34.201 14.14-41.268 13.345-6.005 29.715-2.528 40.154.944 3.39 1.127 6.921 1.691 10.453 1.691 3.531 0 7.063-.563 10.453-1.691 10.439-3.472 26.809-6.949 40.154-.944 15.708 7.068 15.006 29.303 14.14 41.268-.302 4.16.688 8.332 2.936 11.86 1.327 2.083 2.381 4.291 3.217 6.471 1.039 2.711 1.778 7.844 2.235 10.688 2.411-1.168 7.024-2.44 9.971-2.024.361-12.508 1.516-28.325 1.516-28.325 12.494-61.201-37.669-91.234-84.623-91.681z" fill="#2d3c6b"/><path d="m256 45.654c-46.954.447-97.117 30.481-84.621 91.681 0 0 1.154 15.817 1.516 28.326 2.948-.417 7.56.856 9.971 2.024.457-2.844 1.196-7.977 2.235-10.688.836-2.18 1.889-4.389 3.217-6.471 2.248-3.527 3.237-7.7 2.936-11.86-.867-11.965-1.568-34.201 14.14-41.268 13.345-6.005 29.715-2.528 40.154.944.561.186 1.13.333 1.697.489-.207-.455-.425-.909-.667-1.359-16.917-31.591 9.422-51.818 9.422-51.818z" fill="#1e2f59"/><path d="m344.377 164.952c-3.653-3.348-10.93-1.651-14.077.399.689 4.292.729 8.684.133 13.02l-3.713 27.043c0 2.18-.069 4.319-.195 6.42 9.054 2.731 13.551-5.397 14.309-10.975.326-2.401.859-4.768 1.599-7.077 2.409-7.522 11.097-20.441 1.944-28.83z" fill="#fcad6d"/><path d="m337.714 187.718c-3.086 0-5.918-1.058-8.177-2.819l-2.817 20.515c0 2.18-.069 4.319-.195 6.42 9.054 2.731 13.551-5.397 14.309-10.975.326-2.401.859-4.768 1.599-7.077.808-2.521 2.319-5.65 3.63-9.011-2.285 1.84-5.186 2.947-8.349 2.947z" fill="#fd995b"/><path d="m167.625 164.952c3.653-3.348 10.93-1.651 14.077.399-.689 4.292-.729 8.684-.133 13.02l3.713 27.043c0 2.18.069 4.319.195 6.42-9.054 2.731-13.551-5.397-14.309-10.975-.326-2.401-.859-4.768-1.599-7.077-2.409-7.522-11.097-20.441-1.944-28.83z" fill="#fcad6d"/><path d="m182.465 184.897c-2.259 1.761-5.093 2.82-8.179 2.82-3.161 0-6.061-1.106-8.345-2.944 1.31 3.359 2.821 6.488 3.628 9.008.74 2.309 1.273 4.676 1.599 7.077.758 5.578 5.255 13.706 14.309 10.975-.126-2.101-.195-4.24-.195-6.42z" fill="#fd995b"/><path d="m328.065 156.997c-.836-2.18-1.889-4.389-3.217-6.471-2.248-3.527-3.237-7.7-2.936-11.86.867-11.965.402-35.367-15.305-42.435-13.345-6.005-29.714-2.528-40.153.943-6.78 2.255-14.127 2.255-20.907 0-10.439-3.471-26.808-6.948-40.153-.943-15.752 7.088-16.175 30.603-15.298 42.537.303 4.128-.713 8.258-2.944 11.758-1.286 2.018-2.315 4.153-3.137 6.266-2.669 6.856-3.447 14.292-2.447 21.573l3.714 27.049c0 38.887 20.758 65.318 38.415 79.029 9.216 7.157 20.59 11.044 32.304 11.044s23.088-3.887 32.304-11.044c17.657-13.712 38.415-40.143 38.415-79.029l3.713-27.043c.99-7.209.24-14.572-2.368-21.374z" fill="#f9ba8f"/><g><path d="m267.197 284.444c-17.657-13.711-38.415-40.143-38.415-79.029l-3.714-27.049c-.999-7.281-.222-14.717 2.447-21.573.823-2.114 1.852-4.249 3.138-6.266 2.231-3.501 3.247-7.63 2.944-11.758-.832-11.315-.485-33.033 12.981-41.297-.343-.102-.69-.184-1.03-.297-10.439-3.471-26.809-6.948-40.153-.943-15.752 7.088-16.175 30.603-15.298 42.537.303 4.128-.712 8.258-2.944 11.758-1.286 2.018-2.315 4.153-3.138 6.266-2.669 6.856-3.447 14.292-2.447 21.573l3.714 27.049c0 38.887 20.758 65.318 38.415 79.029 9.217 7.157 20.59 11.045 32.304 11.045 7.555 0 14.965-1.626 21.75-4.695-3.735-1.689-7.282-3.809-10.554-6.35z" fill="#fcad6d"/></g><g fill="#2d3c6b"><path d="m250.694 222.179c0 1.583-1.373 2.799-2.948 2.637-7.332-.759-25.802-.192-25.802 24.796v51.694c0 1.489-2.052 1.881-2.603.498-4.013-10.087-11.253-31.026-11.253-50.807 0-23.719 11.451-37.549 32.322-38.557 5.586-.27 10.284 4.147 10.284 9.739z"/><path d="m261.306 222.179c0 1.583 1.373 2.799 2.948 2.637 7.332-.759 25.802-.192 25.802 24.796v51.694c0 1.489 2.052 1.881 2.603.498 4.013-10.087 11.253-31.026 11.253-50.807 0-23.719-11.451-37.549-32.322-38.557-5.586-.27-10.284 4.147-10.284 9.739z"/><path d="m101.766 340.242c-26.442 11.261-40.316 37.358-45.093 69.232 25.961 36.256 61.567 65.132 103.069 82.882v-178.332z"/></g><path d="m101.765 340.242c-26.442 11.261-40.315 37.357-45.093 69.232 16.404 22.909 36.662 42.866 59.821 58.936 0-11.426 0-26.093 0-42.099 0-31.547 31.001-53.82 39.413-59.283 1.352-.878 2.443-2.086 3.227-3.495.201-.36.403-.708.607-1.049v-48.46z" fill="#1e2f59"/><g><path d="m172.119 306.585 65.98 83.59 18.823-23.846-51.247-64.924c-3.415-4.327-9.339-5.77-14.362-3.499z" fill="#bec8f7"/></g><path d="m219.884 367.099 18.215 23.076 18.823-23.847-17.677-22.394z" fill="#97a9dd"/><g><path d="m306.327 301.404-121.119 153.445v47.693l154.675-195.956-19.194-8.68c-5.023-2.272-10.947-.829-14.362 3.498z" fill="#bec8f7"/></g><path d="m179.331 300.436-17.575 7.028c-2.273.909-3.764 3.111-3.764 5.559v178.567c9.549 4.173 19.412 7.758 29.55 10.703v-196.298c-.001-4.236-4.279-7.132-8.211-5.559z" fill="#607bad"/><path d="m187.541 305.995c0-4.236-4.278-7.132-8.211-5.559l-17.575 7.028c-2.274.909-3.764 3.111-3.764 5.559v52.139c.427-.506.817-1.045 1.143-1.629 7.215-12.958 16.544-13.689 22.504-12.429 2.031.429 4.087.196 5.903-.587z" fill="#4d6596"/><path d="m350.244 307.464-17.575-7.028c-3.933-1.573-8.211 1.324-8.211 5.559v196.298c10.138-2.945 20.001-6.53 29.549-10.703v-178.567c.001-2.448-1.49-4.65-3.763-5.559z" fill="#607bad"/><path d="m412.068 455.848c-3.967-19.979-10.354-40.766-20.537-51.436-2.447-2.564-6.774-.825-6.774 2.72v68.327c9.56-5.918 18.684-12.474 27.311-19.611z" fill="#1e2f59"/><path d="m378.075 54.533c9.889 31.216 23.193 92.205-1.582 144.044-35 73.234-27.722 82.734 14.139 93.734 34.558 9.081 70.343 24.249 89.281 74.246 13.552-30.418 21.087-64.106 21.087-99.557 0-90.86-49.461-170.166-122.925-212.467z" fill="#ff4155"/><path d="m133.925 54.533c-9.889 31.216-23.193 92.205 1.581 144.044 35 73.234 27.722 82.734-14.139 93.734-34.558 9.081-70.343 24.249-89.281 74.246-13.551-30.418-21.086-64.106-21.086-99.557 0-90.86 49.461-170.166 122.925-212.467z" fill="#ff4155"/></g></svg>