<svg id="Layer_1" enable-background="new 0 0 512 512" height="512" viewBox="0 0 512 512" width="512" xmlns="http://www.w3.org/2000/svg"><g><g><g><g id="XMLID_1021_"><g id="XMLID_1022_"><g id="XMLID_1023_"><g id="XMLID_1024_"><g id="XMLID_1025_"><g id="XMLID_1026_"><g id="XMLID_1027_"><g id="XMLID_1028_"><g id="XMLID_1029_"><g id="XMLID_1030_"><g id="XMLID_1031_"><g id="XMLID_1032_"><g id="XMLID_1033_"><g id="XMLID_1034_"><g id="XMLID_1035_"><circle cx="256" cy="256" fill="#7de7ff" r="256"/></g></g></g></g></g></g></g></g></g></g></g></g></g></g></g></g></g><path d="m53.686 412.857c46.833 60.319 120.035 99.143 202.314 99.143 141.385 0 256-114.615 256-256 0-10.959-.692-21.757-2.028-32.354l-168.14-168.14-15.685 25.401c-.01-.009-24.7-24.7-24.7-24.7l-143.87 136.116 69.012 67.937c5.347 10.025-17.461 59.674-17.461 59.674z" fill="#61c4e2"/><g><path d="m201.155 240.511h109.691v116.327h-109.691z" fill="#ffbb7d"/><path d="m256 240.514h54.845v116.327h-54.845z" fill="#efa36a"/><path d="m156.463 305.075h199.071v111.878h-199.071z" fill="#ffd4a6"/><path d="m255.999 305.075h99.538v111.875h-99.538z" fill="#ffbb7d"/><path d="m458.32 378.27v34.59c-11.75 15.13-25.16 28.91-39.96 41.07-44.18 36.29-100.72 58.07-162.36 58.07s-118.18-21.78-162.36-58.07c-14.8-12.16-28.21-25.94-39.96-41.07v-34.59c1.16-37.61 29.8-68.29 66.51-72.66 2.95-.35 5.96 8.42 9.01 8.42l33.23-8.95h38.73c0 2.79.72 5.48 2.04 7.85 1.31 2.36 3.22 4.39 5.59 5.87l38.7 24.02c5.21 3.23 11.81 3.23 17.02 0l38.7-24.02c4.74-2.95 7.63-8.14 7.63-13.72h38.73l33.24 8.95c3.04 0 6.05-8.77 9-8.42 36.72 4.36 65.36 35.04 66.51 72.66z" fill="#fcfcfc"/><path d="m458.32 378.27v34.59c-11.75 15.13-25.16 28.91-39.96 41.07-44.18 36.29-100.72 58.07-162.36 58.07v-166.76c2.95 0 5.9-.8 8.51-2.42l22.91-14.22 15.79-9.8c4.74-2.95 7.63-8.14 7.63-13.72h38.73l33.24 8.95c3.04 0 6.05-8.77 9-8.42 7.38.88 14.44 2.82 21.01 5.66 26.12 11.32 44.58 36.95 45.5 67z" fill="#ddd9d4"/><path d="m346.781 127.312c-3.835-58.222-50.93-51.583-90.781-51.583s-86.946-6.639-90.781 51.583c-10.305 1.993-17.625 15.51-16.473 26.438l1.766 24.87c1.209 11.476 11.297 19.854 22.414 18.608l1.917-.208c22.773 61.15 58.487 67.526 81.156 71.106 22.669-3.58 58.383-9.956 81.156-71.106l1.917.208c11.117 1.247 21.205-7.131 22.414-18.608l1.766-24.87c1.154-10.929-6.166-24.445-16.471-26.438z" fill="#ffd4a6"/><path d="m363.254 153.749-1.766 24.87c-1.209 11.476-11.297 19.854-22.414 18.608l-1.917-.208c-7.783 20.875-17.068 35.374-26.825 45.546-18.815 19.628-39.397 23.198-54.331 25.56v-192.396c39.851 0 86.946-6.639 90.781 51.583 10.304 1.993 17.624 15.509 16.472 26.437z" fill="#ffbb7d"/><g><path d="m162.43 305.08v123.27h-42.24v-122.74c2.95-.35 5.96-.53 9.01-.53z" fill="#ffc136"/><path d="m391.81 305.61v122.74h-42.24v-123.27h33.24c3.05 0 6.05.18 9 .53z" fill="#ea990a"/></g><path d="m418.36 381.72v72.21c-44.18 36.29-100.72 58.07-162.36 58.07s-118.18-21.78-162.36-58.07v-72.21z" fill="#655665"/><path d="m418.36 381.72v72.21c-44.18 36.29-100.72 58.07-162.36 58.07v-130.28z" fill="#4c404c"/><path d="m341.832 55.506-29.372 12.367c-24.39-26.795-56.46-54.524-56.46-54.524s-32.07 27.729-56.46 54.524l-29.371-12.367s-14.514 77.637 9.447 112.419h18.55l3.092-54.363c35.737 10.52 73.748 10.52 109.485 0l3.092 54.363h18.551c23.959-34.782 9.446-112.419 9.446-112.419z" fill="#655665"/><path d="m332.38 167.92h-18.55l-3.09-54.36c-17.86 5.26-36.3 7.89-54.74 7.89v-108.1s32.07 27.73 56.46 54.52l29.37-12.36s14.52 77.63-9.45 112.41z" fill="#4c404c"/></g></g></svg>