<svg id="Layer_1" enable-background="new 0 0 512 512" height="512" viewBox="0 0 512 512" width="512" xmlns="http://www.w3.org/2000/svg"><g><path d="m456.005 408.53c28.337-39.971 44.995-88.805 44.995-141.53 0-135.31-109.69-245-245-245s-245 109.69-245 245c0 52.727 16.66 101.562 44.998 141.534z" fill="#ffc839"/><path d="m170.588 290.378c.662-.264 1.34-.518 2.019-.772l.616-.232c.73-.275 1.187-1.001 1.121-1.778-.077-.902.285-1.772.971-2.328l17.359-14.113c2.52-2.049 6.084-1.979 8.475.163 13.101 11.738 32.581 18.202 54.852 18.202 30.049 0 47.264-11.405 54.851-18.202 2.393-2.142 5.958-2.211 8.475-.163l17.359 14.112c.298.242.535.537.706.876.219.432.31.937.265 1.459-.068.779.392 1.508 1.124 1.783l.525.196c.703.263 1.405.525 2.065.781.861.368 1.754.743 2.689 1.135 3.683 1.546 7.927 3.328 13.321 5.982l5.335-37.395-28.589-159.445h-77.844-.283-77.844l-28.589 159.445 5.318 37.278c5.255-2.589 10.505-4.93 15.703-6.984z" fill="#e80054"/><path d="m345.5 292.101c5.693 2.399 12.781 5.492 23.212 11.374.318.179.615.349.918.522 11.825-22.815 24.35-52.415 7.855-84.562-27.958-54.488-23.735-102.975-23.735-102.975l-29.2-1.4c0 29.616-10.814 78.212 14.875 123.247 10.387 18.208 10.177 37.299 6.075 53.794z" fill="#ff4155"/><path d="m353.751 116.461-29.2-1.4c0 16.763-3.46 39.608-1.809 64.444 2.182-3.31 12.65-16.404 36.981-7.574-7.987-32.302-5.972-55.47-5.972-55.47z" fill="#e80054"/><path d="m143.289 303.475c7.747-4.368 15.563-8.208 23.294-11.459-4.081-16.475-4.272-35.533 6.096-53.709 25.689-45.035 14.875-93.631 14.875-123.247l-29.2 1.4s4.223 48.487-23.735 102.975c-16.484 32.126-3.986 61.708 7.832 84.517.277-.158.548-.313.838-.477z" fill="#ff4155"/><path d="m158.354 116.461s1.896 21.788-5.273 52.565l.001.001s24.933-11.606 36.289 10.369c1.634-24.795-1.817-47.597-1.817-64.336z" fill="#e80054"/><path d="m256.001 289.519c27.912 0 44.746-9.839 53.081-16.687-4.803-9.257-6.262-21.532-6.58-30.764-4.696 5.471-9.626 10.047-14.336 13.704-9.177 7.126-20.501 10.997-32.165 10.997-11.663 0-22.987-3.871-32.164-10.997-4.71-3.658-9.64-8.234-14.337-13.704-.318 9.228-1.776 21.495-6.573 30.751 13.054 10.778 31.781 16.7 53.074 16.7z" fill="#fcad6d"/><path d="m251.912 289.443c3.837-7.518 5.518-15.914 6.215-22.717-.707.029-1.416.044-2.126.044-11.663 0-22.987-3.871-32.164-10.997-4.71-3.658-9.64-8.234-14.337-13.704-.318 9.228-1.776 21.495-6.573 30.751 12.212 10.082 29.388 15.912 48.985 16.623z" fill="#fd995b"/><path d="m324.245 124.985c-2.012-3.398-2.903-7.342-2.618-11.281.863-11.914.4-35.214-15.239-42.251-13.287-5.979-29.585-2.517-39.979.939-6.751 2.245-14.066 2.245-20.816 0-10.394-3.456-26.693-6.918-39.979-.939-15.684 7.057-16.105 30.471-15.232 42.353.282 3.845-.599 7.684-2.531 11.018 1.038 19.996 4.195 45.992-.74 73.119 5.077 29.103 21.984 49.46 36.725 60.908 9.177 7.126 20.501 10.997 32.164 10.997s22.988-3.871 32.164-10.997c14.79-11.485 31.761-31.935 36.778-61.189-4.848-26.953-1.74-52.771-.697-72.677z" fill="#f9ba8f"/><g><path d="m266.336 258.851c-14.742-11.448-31.648-31.806-36.725-60.908 4.935-27.127 1.778-53.123.74-73.119 1.932-3.334 2.813-7.173 2.531-11.018-.833-11.34-.478-33.171 13.189-41.276-.158-.05-.32-.085-.478-.138-10.394-3.456-26.692-6.918-39.979-.939-15.684 7.057-16.105 30.471-15.232 42.353.282 3.845-.599 7.684-2.531 11.018 1.038 19.996 4.195 45.992-.74 73.119 5.077 29.102 21.984 49.46 36.725 60.908 9.177 7.126 20.501 10.997 32.164 10.997 7.372 0 14.606-1.55 21.25-4.487-3.867-1.71-7.537-3.887-10.914-6.51z" fill="#fcad6d"/></g><path d="m256 512c83.021 0 156.385-41.302 200.698-104.47-.243-3.014-.472-6.171-.683-9.489-2.983-47.128-23.109-85.428-70.182-89.276-6.001-.49-9.193-2.818-16.265-6.806-13.219-7.454-21.233-10.516-27.511-13.199-1.478-.576-2.94-1.124-4.396-1.66.004.037.016.073.018.11.044.748-.216 1.452-.732 1.982-31.811 32.687-80.412 32.018-80.985 32.003-.05-.002-5.046.095-12.793-.826-.212-.025-1.722-.214-2.339-.302-18.802-2.572-45.477-10.016-65.777-30.876-.516-.53-.776-1.233-.732-1.981.003-.043.016-.083.021-.126-1.484.547-2.956 1.102-4.397 1.675-8.987 3.552-18.231 7.967-27.511 13.199-7.072 3.988-10.264 6.316-16.265 6.806-47.315 3.868-67.204 42.441-70.183 89.276-.201 3.166-.433 6.33-.682 9.493 44.313 63.167 117.677 104.467 200.696 104.467z" fill="#e9efff"/><path d="m132.455 478.601c0-25.317 0-55.356 0-79.06 0-43.041 58.245-73.573 76.122-81.93 1.936-.905 3.297-2.615 3.832-4.593-12.789-4.771-26.058-12.221-37.355-23.828-.515-.53-.776-1.233-.732-1.981.003-.043.016-.083.021-.126-1.484.547-2.956 1.102-4.398 1.675-8.987 3.552-18.23 7.967-27.511 13.199-7.072 3.988-10.264 6.316-16.265 6.806-47.316 3.868-67.204 42.441-70.183 89.276-.201 3.166-.433 6.33-.682 9.493 20.261 28.882 46.598 53.188 77.151 71.069z" fill="#dae2fe"/><path d="m240.595 316.887v86.51c0 8.509 6.898 15.406 15.406 15.406 8.509 0 15.406-6.897 15.406-15.406v-86.51z" fill="#bec8f7"/><path d="m243.622 321.798c-.009-.001-.018-.002-.027-.004v-18.934c0-8.154 6.468-14.694 14.532-15.049v-.059c-.703.013-1.408.025-2.126.025l-.001.001v-.001c-24.062 0-42.356-7.605-53.688-17.758-3.026-2.711-7.583-2.78-10.736-.218l-17.359 14.113c-2.003 1.628-2.211 4.641-.411 6.491 21.257 21.842 49.551 29.029 66.79 31.387v.002c.619.085 2.154.278 2.37.303v-.003c.224.027.437.05.657.075v-.371z" fill="#bec8f7"/><path d="m191.575 269.802-17.359 14.113c-2.003 1.628-2.211 4.641-.411 6.491 11.552 11.87 25.181 19.406 37.986 24.196.714-1.295 1.025-2.81.82-4.348-2.528-19.006 16.433-26.067 16.433-26.067v-.014c-11.118-3.184-20.12-8.227-26.733-14.152-3.026-2.713-7.583-2.782-10.736-.219z" fill="#97a9dd"/><path d="m320.426 269.802c-3.152-2.563-7.71-2.494-10.736.218-7.501 6.72-24.295 17.758-53.689 17.758h-.001v-.001c-.056 0-.112 0-.167 0-8.392-.012-15.238 6.691-15.238 15.083v18.934c9.315 1.274 15.405 1.14 15.405 1.14v-.001l.001.001s49.459 1.109 82.195-32.529c1.8-1.85 1.592-4.862-.411-6.491z" fill="#dae2fe"/><path d="m256.001 0c-53.763 0-97.75 43.987-97.75 97.75v20.367c0 6.404 3.341 12.361 8.84 15.644 23.906 14.273 54.96-5.273 88.909-5.273 33.95 0 65.004 19.546 88.911 5.272 5.499-3.283 8.84-9.24 8.84-15.644v-20.366c0-53.763-43.988-97.75-97.75-97.75z" fill="#ff7186"/><path d="m267.063.634c-3.633-.414-7.323-.634-11.062-.634-53.762 0-97.75 43.987-97.75 97.75v20.367c0 6.404 3.342 12.361 8.84 15.644 17.829 10.645 39.635 2.481 63.651-2.358-1.805-12.133 4.977-17.897 9.717-20.396 2.116-1.115 3.062-3.643 2.146-5.852-4.158-10.018.963-14.744 5.105-16.834 2.102-1.061 3.075-3.545 2.23-5.744-3.755-9.771.851-14.685 5.039-17.036 2.308-1.296 3.088-4.242 1.675-6.479-3.131-4.96-7.199-14.246-7.199-29.01 0-14.161 9.674-23.85 17.608-29.418z" fill="#ff4155"/><g><path d="m256.001 85.93c-32.931 0-65.86 3.949-97.876 11.847-.187.046-.372.096-.556.152-6.144 1.843-9.632 8.318-7.789 14.462 1.797 5.992 8 9.456 14.002 7.915 60.366-14.877 124.172-14.868 184.536.024 6.228 1.535 12.521-2.267 14.058-8.494 1.536-6.228-2.267-12.521-8.494-14.058-32.016-7.898-64.95-11.848-97.881-11.848z" fill="#3c5082"/></g><path d="m242.605 105.154c-4.158-10.018.963-14.744 5.105-16.834 1.015-.512 1.759-1.36 2.17-2.344-30.887.459-61.722 4.392-91.754 11.801-.186.046-.372.096-.556.152-6.144 1.843-9.632 8.318-7.789 14.461 1.797 5.992 8 9.456 14.002 7.915 25.69-6.332 52.004-9.956 78.41-10.896.802-1.233 1.012-2.808.412-4.255z" fill="#2d3c6b"/><g><path d="m256.001 63.574c-32.931 0-65.86 3.949-97.876 11.847-.187.046-.372.096-.556.152-6.144 1.843-9.632 8.319-7.789 14.462 1.797 5.992 8 9.456 14.002 7.915 60.366-14.877 124.172-14.868 184.536.024 6.228 1.535 12.521-2.267 14.058-8.494 1.536-6.228-2.267-12.521-8.494-14.058-32.016-7.899-64.95-11.848-97.881-11.848z" fill="#4d6596"/></g><path d="m256.001 63.574c-32.931 0-65.86 3.949-97.876 11.847-.186.046-.372.096-.556.152-6.144 1.843-9.632 8.319-7.789 14.462 1.797 5.992 8 9.456 14.002 7.915 28.021-6.906 56.783-10.598 85.598-11.089.861-1.216 1.126-2.809.56-4.284-3.755-9.771.851-14.685 5.039-17.036.84-.471 1.471-1.165 1.874-1.96-.284-.001-.568-.007-.852-.007z" fill="#3c5082"/><path d="m332.846 453.982c-15.756 0-28.647-12.891-28.647-28.647v-39.824h57.294v39.824c0 15.756-12.891 28.647-28.647 28.647z" fill="#dae2fe"/><path d="m332.846 425.335v-39.825h-28.647v39.824c0 15.756 12.891 28.647 28.647 28.647 5.21 0 10.102-1.417 14.323-3.873-8.544-4.972-14.323-14.228-14.323-24.773z" fill="#bec8f7"/><path d="m360.284 377.671h-54.877c-2.405 0-4.354 1.949-4.354 4.354v10.454c0 2.405 1.949 4.354 4.354 4.354h54.877c2.405 0 4.354-1.949 4.354-4.354v-10.454c0-2.404-1.949-4.354-4.354-4.354z" fill="#bec8f7"/><g fill="#97a9dd"><path d="m327.72 392.48v-10.455c0-2.405 1.949-4.354 4.354-4.354h-26.667c-2.404 0-4.354 1.949-4.354 4.354v10.455c0 2.404 1.95 4.354 4.354 4.354h26.667c-2.405 0-4.354-1.95-4.354-4.354z"/><circle cx="256" cy="345.48" r="7.392"/><circle cx="256" cy="375.046" r="7.392"/></g><path d="m240.595 396.834v6.563c0 8.508 6.898 15.406 15.406 15.406s15.406-6.898 15.406-15.406v-6.563z" fill="#dae2fe"/><ellipse cx="256" cy="306.03" fill="#97a9dd" rx="7.392" ry="7.392" transform="matrix(.707 -.707 .707 .707 -141.416 270.654)"/><path d="m324.683 196.228c-3.544 6.225-9.755 12.805-18.918 16.78-2.056-12.257-10.898-24.529-22.704-27.206l-18.045-5.302c-3.137-.922-6.278.688-7.541 3.421-.231.5-.927.5-1.158 0-1.263-2.732-4.404-4.342-7.541-3.421l-18.045 5.302c-12.039 2.73-21.003 15.437-22.825 27.931-10.16-3.831-16.777-10.77-20.511-17.343-.208 1.218-.425 2.438-.667 3.661 8.116 40.126 32.165 59.675 49.941 68.736 12.108 6.171 26.388 6.191 38.5.027 17.821-9.068 42.077-28.689 50.158-69.043-.233-1.183-.444-2.364-.644-3.543zm-47.694 42.503c-7.75 2.738-16.208-2.136-17.201-10.204-.012-.104-.025-.21-.036-.316-.163-1.505-1.423-2.661-2.956-2.661-1.533 0-2.793 1.156-2.955 2.661-.012.106-.024.211-.037.316-.993 8.068-9.45 12.942-17.2 10.204-10.664-3.768-15.251-10.904-17.223-16.136 5.777-7.903 14.284-13.573 24.076-15.735l3.223-.711c4.698-1.037 8.33-5.624 9.663-10.509.153-.562.951-.562 1.103 0 1.332 4.886 4.965 9.472 9.663 10.509l3.223.711c9.265 2.045 17.381 7.229 23.123 14.475-1.188 5.284-4.916 13.315-16.466 17.396z" fill="#2d3c6b"/><path d="m246.471 238.334c-2.972 1.336-6.487 1.592-9.868.397-10.664-3.768-15.251-10.904-17.223-16.136 3.563-4.873 8.165-8.893 13.465-11.77-9.192-11.776-1.992-24.405-1.524-25.198l-.593.174c-12.039 2.73-21.003 15.438-22.825 27.932-10.16-3.831-16.777-10.77-20.511-17.343-.208 1.218-.425 2.438-.667 3.661 8.116 40.126 32.165 59.675 49.941 68.736 6.421 3.272 13.453 4.797 20.449 4.605-18.686-13.174-11.634-32.602-10.644-35.058z" fill="#1e2f59"/><path d="m385.416 403.484v71.568c9.756-6.083 19.054-12.83 27.829-20.183-3.921-20.773-10.418-42.959-21.055-54.105-2.447-2.565-6.774-.825-6.774 2.72z" fill="#dae2fe"/><path d="m423.215 87.957c-16.547 11.64-36.563 33.887-23.884 69.139 15.026 41.779 20.829 76.521 18.729 100.323-1.054 11.951 5.085 23.378 15.523 29.292 17.732 10.046 42.134 29.802 52.217 65.408 9.826-26.512 15.2-55.187 15.2-85.119 0-70.664-29.927-134.328-77.785-179.043z" fill="#ffdd40"/><path d="m88.785 87.957c16.547 11.64 36.563 33.887 23.884 69.139-15.025 41.779-20.828 76.521-18.729 100.324 1.054 11.951-5.085 23.378-15.523 29.292-17.732 10.046-42.134 29.801-52.217 65.408-9.826-26.513-15.2-55.188-15.2-85.12 0-70.664 29.928-134.328 77.785-179.043z" fill="#ffdd40"/></g></svg>