<svg id="Layer_1" enable-background="new 0 0 512 512" height="512" viewBox="0 0 512 512" width="512" xmlns="http://www.w3.org/2000/svg"><g><g><g><g><g id="XMLID_1163_"><g id="XMLID_1164_"><g id="XMLID_1165_"><g id="XMLID_1166_"><g id="XMLID_1167_"><g id="XMLID_1168_"><g id="XMLID_1169_"><g id="XMLID_1188_"><g id="XMLID_1189_"><g id="XMLID_1190_"><g id="XMLID_1207_"><g id="XMLID_1208_"><g id="XMLID_1209_"><g id="XMLID_1286_"><g><path d="m512 256c0 81.33-37.93 153.8-97.06 200.69 0 0-98.89 4.31-158.94 4.31s-158.94-4.31-158.94-4.31c-59.13-46.89-97.06-119.36-97.06-200.69 0-141.38 114.62-256 256-256s256 114.62 256 256z" fill="#fc445f"/></g></g></g></g></g></g></g></g></g></g></g></g></g></g></g></g></g><path d="m414.94 456.69c59.13-46.89 97.06-119.36 97.06-200.69 0-19.675-2.226-38.829-6.429-57.231l-90.631-90.631-31.293 10.715-54.18-54.036-182.064 152.275 41.668 41.67c7.902 14.158 28.78 21.943 37.596 30.238l-8 71.333-121.607 96.357c.003 0 98.891 4.31 158.94 4.31 60.05 0 158.94-4.31 158.94-4.31z" fill="#e00f5a"/><path d="m327 108.138h87.94v41.191h-87.94z" fill="#2fc1b6"/><g><path d="m307.27 273.5v65.49l-52.44 82.01-50.62-67.19v-80.31z" fill="#ffc48a"/><path d="m307.27 273.5v65.49l-52.44 82.01v-147.5z" fill="#ffaf78"/><path d="m319.237 415.667h-126.588l11.556-76.677h103.063z" fill="#ffdaae"/><path d="m307.268 338.99 11.972 76.68h-64.409v-76.68z" fill="#ffc48a"/><g><path d="m284.706 234.125h-30v-71.77h65.627v30h-35.627z" fill="#ffaf78"/></g><path d="m414.94 456.69c-43.66 34.63-98.89 55.31-158.94 55.31s-115.28-20.68-158.94-55.31l7.04-63.01c2.33-20.81 17.78-37.75 38.28-41.97l61.83-12.72 12.42 21.84c17.33 30.44 61.24 30.34 78.43-.17l12.21-21.67 62.3 12.75c20.53 4.2 36.01 21.16 38.33 41.98z" fill="#ffe780"/><path d="m414.94 456.69c-43.66 34.63-98.89 55.31-158.94 55.31v-128.4c15.25-.07 30.49-7.72 39.06-22.94l12.21-21.67 62.3 12.75c20.53 4.2 36.01 21.16 38.33 41.98z" fill="#fed940"/><path d="m353.303 149.329c-4.158-61.206-55.244-83.829-98.472-83.829-43.227 0-94.314 22.623-98.472 83.829-11.186 2.095-19.124 16.303-17.879 27.797l1.926 26.147c1.307 12.065 12.247 20.868 24.313 19.561l2.078-.225c24.699 64.292 63.446 80.844 88.034 84.605 24.588-3.76 63.335-20.313 88.034-84.605l2.078.225c12.065 1.307 23.006-7.496 24.313-19.561l1.926-26.147c1.245-11.494-6.693-25.702-17.879-27.797z" fill="#ffdaae"/><path d="m156.359 149.329 9.641 37.028h22l4.649-47.857z" fill="#776d6b"/><g><path d="m353.303 149.329c11.186 2.095 19.124 16.303 17.879 27.797l-1.926 26.147c-1.307 12.065-12.248 20.868-24.313 19.561l-2.078-.225c-24.699 64.292-63.446 80.844-88.034 84.605v-241.714c43.228 0 94.314 22.623 98.472 83.829z" fill="#ffc48a"/></g><path d="m353.303 149.329-9.64 37.028h-22l-4.649-47.857z" fill="#605553"/></g></g><path d="m261.497 34.693h-13.331c-50.703 0-91.807 41.103-91.807 91.807v22.829h196.944v-22.829c0-50.703-41.103-91.807-91.806-91.807z" fill="#6ae1db"/></g></svg>