<svg id="Layer_1" enable-background="new 0 0 512 512" height="512" viewBox="0 0 512 512" width="512" xmlns="http://www.w3.org/2000/svg"><g><path d="m456.231 408.204c28.198-39.911 44.769-88.621 44.769-141.204 0-135.31-109.69-245-245-245s-245 109.69-245 245c0 52.589 16.575 101.303 44.778 141.216z" fill="#38c674"/><path d="m456.111 396.142c-2.984-47.15-23.12-85.469-70.215-89.319-6.003-.491-9.198-2.82-16.273-6.809-8.342-4.704-14.609-3.658-19.678-5.873-2.513 11.94-15.864 54.403-76.606 94.171-9.967 6.525-22.92 6.525-32.887 0-62.11-40.664-74.67-84.326-76.76-94.923-7.015 3.043-14.151 2.588-21.311 6.625-7.075 3.99-10.269 6.319-16.272 6.809-47.338 3.87-67.236 42.461-70.216 89.319-.234 3.694-.507 7.385-.807 11.075 18.711 26.761 42.631 49.612 70.289 67.081l77.37 31.894c17.143 3.801 34.965 5.808 53.255 5.808s36.111-2.007 53.257-5.808l77.37-31.894c27.662-17.472 51.585-40.327 70.298-67.094-.292-3.488-.567-7.158-.814-11.062z" fill="#f9efdc"/><g fill="#f1e0c7"><path d="m92.658 449.569c10.178 9.114 21.112 17.401 32.714 24.729l18.286 7.538 11.042-126.095c.001-.001-44.662 23.132-62.042 93.828z"/><path d="m422.991 446.23c-17.94-68.087-61.192-90.49-61.192-90.49l10.885 124.305 13.943-5.748c13.002-8.212 25.166-17.628 36.364-28.067z"/><path d="m313.933 426.423c-3.398.715-6.145-.357-7.816-1.354-1.141-.681-2.6-.593-3.652.218-13.041 10.058-24.98 3.484-29.603.105-1.198-.876-2.84-.815-3.97.147-11.102 9.45-20.315 3.352-24.096-.116-1.108-1.017-2.792-1.126-4.01-.242-15.379 11.157-27.765 2.925-31.757-.434-.866-.729-2.043-.948-3.118-.596-3.13 1.026-5.721 1.101-7.844.685v79.428l4.675 1.927c17.146 3.802 34.968 5.809 53.258 5.809s36.111-2.007 53.257-5.808l4.676-1.927z"/></g><path d="m304.33 343.051v164.172c6.498-1.3 12.905-2.852 19.206-4.655v-155.116l26.896-55.614-18.12-6.644z" fill="#a05838"/><path d="m323.535 422.629c-1.083-.443-2.331-.28-3.23.478-6.292 5.298-11.564 3.529-14.189 1.963-.549-.327-1.172-.473-1.787-.449v82.603c6.498-1.3 12.904-2.852 19.206-4.655z" fill="#7f3822"/><path d="m382.894 303.741-34.11-12.507-26.994 55.818v156.001c24.841-6.909 48.087-17.635 69.079-31.504-.197-.601-.414-1.196-.67-1.778-6.109-13.903-24.43-58.564-24.43-94.128 0-26.837 11.042-51.519 19.242-66.148 1.212-2.166.213-4.9-2.117-5.754z" fill="#7f3822"/><path d="m370.284 410.78c-1.595.247-3.108 1.064-4.218 2.393-16.119 19.316-36.266 12.304-42.412 9.501-.594-.271-1.245-.346-1.865-.243v80.622c24.841-6.909 48.087-17.635 69.079-31.504-.197-.601-.415-1.196-.671-1.778-4.18-9.515-14.079-33.438-19.913-58.991z" fill="#6b2c1b"/><path d="m166.975 289.856 21.489 57.512v155.2c6.301 1.803 12.708 3.355 19.206 4.655v-164.172l-27.981-57.857z" fill="#a05838"/><path d="m207.67 424.083c-.574-.132-1.179-.122-1.759.068-7.879 2.584-12.397-.809-14.415-3.11-.767-.875-1.917-1.288-3.032-1.088v82.614c6.301 1.803 12.708 3.355 19.206 4.655z" fill="#7f3822"/><path d="m129.107 303.741c-2.331.855-3.329 3.588-2.116 5.754 8.2 14.63 19.242 39.311 19.242 66.148 0 35.564-18.321 80.225-24.43 94.128-.256.582-.474 1.177-.67 1.778 20.992 13.869 44.238 24.595 69.078 31.504v-156.001l-21.596-57.798z" fill="#7f3822"/><path d="m190.21 420.138c-.709-.282-1.504-.32-2.255-.051-25.199 9.001-38.19-1.973-43.185-8.174-.768-.953-1.746-1.668-2.827-2.15-5.8 25.933-15.905 50.367-20.141 60.008-.256.582-.474 1.177-.67 1.778 20.992 13.869 44.238 24.595 69.078 31.504z" fill="#6b2c1b"/><path d="m242.951 389.761v121.892c4.322.227 8.671.347 13.049.347 4.983 0 9.927-.167 14.837-.46v-121.779c-8.716 4.571-19.17 4.571-27.886 0z" fill="#f1e0c7"/><path d="m270.837 511.54v-86.761c-.697.029-1.384.283-1.945.761-11.102 9.45-20.315 3.352-24.096-.116-.523-.48-1.175-.75-1.845-.816v87.046c4.322.226 8.671.346 13.049.346 4.984 0 9.927-.167 14.837-.46z" fill="#e8d0b1"/><path d="m360.62 198.733c-.032-.993-1.205-1.479-1.94-.811-4.572 4.157-12.941 5.312-12.941 5.312-17.226 4.684-24.257 18.235-27.136 28.835.637-.007 1.279.012 1.928.091 7.107.862 12.376 6.718 12.753 13.626.009.115.028.228.034.343 25.985-14.786 27.572-39.13 27.302-47.396z" fill="#ff4155"/><path d="m333.283 245.786c.009.115.028.228.034.343 8.216-4.676 13.988-10.307 18.038-16.083-24.753-.567-18.707-20.37-18.703-20.382-8.039 6.25-12.049 15.039-14.049 22.405.637-.007 1.278.012 1.928.091 7.106.862 12.376 6.718 12.752 13.626z" fill="#e80054"/><path d="m378.732 252.09c-6.039-1.309-11.839-7.452-11.839-7.452-12.52-10.245-26.11-9.447-36.216-6.372 1.984 2.834 2.984 6.372 2.534 10.076-.613 5.057-3.758 9.183-8.008 11.283 26.906 12.224 47.458-.493 53.995-5.485.79-.603.506-1.839-.466-2.05z" fill="#ff7186"/><path d="m358.62 239.431c-9.993-4.583-20.035-3.572-27.943-1.165 1.984 2.834 2.984 6.372 2.534 10.076-.613 5.057-3.758 9.183-8.008 11.283 9.49 4.311 18.184 5.512 25.756 5.051-10.5-19.546 7.657-25.244 7.661-25.245z" fill="#ff4155"/><ellipse cx="319.226" cy="246.592" fill="#e80054" rx="14.983" ry="14.983" transform="matrix(.131 -.991 .991 .131 32.99 530.813)"/><path d="m337.809 272.48c-1.791-.21-3.252-1.49-3.692-3.239-2.241-8.899-9.206-10.713-13.572-10.938-2.04-.105-3.661-1.636-3.998-3.65-1.306-7.811-6.453-13.486-11.101-17.141-5.422 6.825-11.282 12.401-16.835 16.713-9.197 7.142-20.548 11.022-32.237 11.022s-23.04-3.879-32.237-11.022c-5.311-4.125-10.901-9.411-16.123-15.835-4.338 3.663-8.818 9.052-10.023 16.264-.333 1.991-1.923 3.549-3.939 3.647-4.362.212-11.38 2.002-13.631 10.941-.44 1.749-1.901 3.029-3.692 3.239-4.746.557-13.202 3.425-13.202 16.791 0 0 6.805 55.136 77.27 101.269 9.985 6.537 22.96 6.537 32.945 0 70.464-46.133 77.27-101.269 77.27-101.269-.001-13.367-8.457-16.235-13.203-16.792z" fill="#ff4155"/><path d="m208.014 238.389c-4.338 3.663-8.818 9.052-10.024 16.264-.333 1.991-1.923 3.549-3.939 3.647-4.362.212-11.38 2.002-13.631 10.941-.441 1.749-1.901 3.029-3.692 3.239-4.746.557-13.202 3.425-13.202 16.791 0 0 4.963 40.129 50.171 80.563-8.506-26.375 1.716-36.398 9.258-40.128 3.368-1.665 5.26-5.276 4.639-8.982-2.22-13.257 6.12-22.364 11.374-26.663 2.16-1.767 3.406-4.45 3.183-7.231-1.195-14.91 14.221-21.584 14.221-21.584-11.689 0-23.04-3.879-32.237-11.021-5.31-4.126-10.899-9.412-16.121-15.836z" fill="#e80054"/><path d="m344.567 137.309c-3.646-3.341-10.908-1.648-14.048.398.688 4.283.727 8.666.133 12.993l-3.706 26.987c0 2.175-.069 4.31-.195 6.407 9.035 2.725 13.523-5.386 14.28-10.953.325-2.396.858-4.758 1.595-7.063 2.405-7.506 11.075-20.399 1.941-28.769z" fill="#fcad6d"/><path d="m337.203 161.032c-2.832 0-5.463-.858-7.651-2.326l-2.606 18.98c0 2.175-.069 4.31-.195 6.407 9.035 2.725 13.523-5.386 14.28-10.953.325-2.396.857-4.758 1.595-7.063.739-2.308 2.07-5.126 3.295-8.165-2.372 1.95-5.408 3.12-8.718 3.12z" fill="#fd995b"/><path d="m168.181 137.309c3.646-3.341 10.908-1.648 14.048.398-.688 4.283-.727 8.666-.133 12.993l3.705 26.987c0 2.175.069 4.31.195 6.407-9.035 2.725-13.523-5.386-14.279-10.953-.325-2.396-.857-4.758-1.595-7.063-2.405-7.506-11.075-20.399-1.941-28.769z" fill="#fcad6d"/><path d="m183.127 158.204c-2.313 1.767-5.194 2.829-8.33 2.829-2.83 0-5.459-.857-7.646-2.323 1.129 2.734 2.296 5.263 2.97 7.369.738 2.305 1.27 4.666 1.596 7.063.756 5.567 5.244 13.678 14.279 10.953-.126-2.097-.195-4.232-.195-6.407z" fill="#fd995b"/><path d="m326.901 126.175c.518 1.059.98 2.13 1.388 3.194 1.037 2.705 1.774 5.5 2.23 8.338 2.406-1.166 5.845-2.435 8.787-2.019.115-3.987.311-8.071.524-11.786-4.245.828-8.557 1.586-12.929 2.273z" fill="#ffdd40"/><path d="m173.041 122.228c1.015 7.917 2.276 13.401 2.276 13.401 2.445.163 5.004 1.154 6.913 2.078.467-2.909 1.23-5.773 2.308-8.541.552-1.418 1.206-2.844 1.96-4.239-4.564-.818-9.052-1.72-13.457-2.699z" fill="#ffdd40"/><g><path d="m326.901 126.175c-45.007 7.075-96.112 6.696-140.404-1.248-.753 1.395-1.408 2.82-1.96 4.238-2.663 6.842-3.44 14.263-2.442 21.528l3.706 26.992c0 38.806 20.715 65.182 38.335 78.865 9.197 7.142 20.548 11.022 32.237 11.022 11.69 0 23.04-3.879 32.237-11.022 17.62-13.683 38.335-40.059 38.335-78.865l3.706-26.986c.988-7.195.239-14.542-2.363-21.331-.407-1.063-.868-2.133-1.387-3.193z" fill="#f9ba8f"/></g><g><path d="m266.426 256.552c-17.621-13.683-38.335-40.059-38.335-78.865l-3.706-26.992c-.961-7.001-.257-14.14 2.176-20.772-13.716-1.033-27.182-2.684-40.064-4.994-.753 1.395-1.408 2.82-1.96 4.238-2.663 6.842-3.44 14.263-2.442 21.528l3.706 26.992c0 38.806 20.715 65.182 38.335 78.865 9.197 7.142 20.548 11.022 32.237 11.022 7.331 0 14.528-1.527 21.145-4.426-3.933-1.725-7.663-3.933-11.092-6.596z" fill="#fcad6d"/></g><path d="m295.588 1.553-29.987 7.914c-6.117 1.614-12.548 1.614-18.665 0l-29.988-7.914c-26.722-10.775-41.574 36.756-48.944 73.777 27.304 7.165 60.043 10.787 92.813 10.787 29.325 0 58.661-2.901 84.119-8.739-7.227-37.287-22.132-86.799-49.348-75.825z" fill="#a05838"/><path d="m168.004 75.33c15.869 4.165 33.58 7.123 52.06 8.878.569-.77 1.14-1.426 1.649-1.95.882-.907 1.129-2.254.59-3.399-1.299-2.756-1.005-6.249-1.005-6.249s2.333-21.371 5-41.704 20.637-21.44 20.637-21.44l-29.988-7.914c-26.721-10.774-41.573 36.756-48.943 73.778z" fill="#7f3822"/><path d="m162.533 79.062c-1.138 6.177-2.069 11.946-2.813 16.982 55.875 15.786 134.623 16.807 193.418 2.32-.722-5.056-1.649-10.983-2.803-17.399-.78-4.339-4.983-7.164-9.303-6.289-52.77 10.686-118.189 9.909-168.94-1.857-4.396-1.019-8.742 1.807-9.559 6.243z" fill="#ce846a"/><path d="m217.908 106.287c1.041-.873 1.359-2.345.792-3.579-4.787-10.417.11-17.465 3.013-20.449.462-.475.745-1.072.837-1.696-17.682-1.523-34.772-4.107-50.458-7.744-4.395-1.019-8.741 1.807-9.558 6.243-1.138 6.177-2.069 11.946-2.813 16.982 17.504 4.945 37.253 8.44 57.93 10.465.086-.076.173-.151.257-.222z" fill="#a05838"/><g><path d="m103.629 80.586c-4.064 6.138-2.384 14.408 3.753 18.473 67.349 44.603 225.642 45.685 298.926 4.635 6.422-3.598 8.712-11.72 5.115-18.143-3.598-6.422-11.722-8.712-18.143-5.114-65.799 36.857-213.382 34.675-271.177-3.604-6.153-4.073-14.417-2.371-18.474 3.753z" fill="#a05838"/></g><path d="m215.75 127.9c-7.14-11.637-1.202-18.793 2.159-21.613.472-.396.787-.918.946-1.482-39.022-3.877-74.528-13.253-96.752-27.972-6.152-4.073-14.416-2.371-18.473 3.753-4.064 6.138-2.384 14.408 3.753 18.473 25.946 17.183 65.393 27.9 108.273 32.244.669-.958.781-2.284.094-3.403z" fill="#7f3822"/><path d="m446.886 113.431c-8.796 8.474-23.227 20.952-42.746 33.109-13.315 8.293-21.189 23.052-20.732 38.732.544 18.685 3.137 43.498 11.842 63.03 4.704 10.553 13.529 18.706 24.314 22.85 17.744 6.818 51.471 25.323 69.636 71.167 7.661-23.729 11.8-49.04 11.8-75.319 0-58.149-20.271-111.555-54.114-153.569z" fill="#49d88b"/><path d="m65.114 113.431c8.796 8.474 23.227 20.952 42.746 33.109 13.315 8.293 21.189 23.052 20.732 38.732-.544 18.685-3.137 43.498-11.843 63.03-4.704 10.553-13.529 18.706-24.314 22.85-17.744 6.818-51.471 25.323-69.636 71.167-7.66-23.729-11.799-49.04-11.799-75.319 0-58.149 20.271-111.555 54.114-153.569z" fill="#49d88b"/></g></svg>