<svg id="Capa_1" enable-background="new 0 0 512 512" height="512" viewBox="0 0 512 512" width="512" xmlns="http://www.w3.org/2000/svg"><g><path d="m438.681 300.854c-8.291-20.01-17.681-42.686-17.681-74.854v-60c0-90.981-74.019-166-165-166s-165 75.019-165 166v60c0 32.168-9.39 54.844-17.681 74.854-6.328 15.292-12.319 29.736-12.319 45.146 0 39.258 22.866 61.714 32.695 69.551h162.305 162.305c9.829-7.837 32.695-30.293 32.695-69.551 0-15.41-5.991-29.854-12.319-45.146z" fill="#f66"/><path d="m451 346c0-15.41-5.991-29.854-12.319-45.146-8.291-20.01-17.681-42.686-17.681-74.854v-60c0-90.981-74.019-166-165-166v415.551h162.305c9.829-7.837 32.695-30.293 32.695-69.551z" fill="#e62e2e"/><path d="m361 363.653c-11.058-3.301-20.984-6.301-29.443-10.798l-75.557 58.155-73.7-59.319c-8.866 5.11-19.387 8.406-31.3 11.962l-15 21.722v104.594l15 22.031h105 105l15-21.094v-102.25z" fill="#575f64"/><path d="m376 490.906v-102.25l-15-25.003c-11.058-3.301-20.984-6.301-29.443-10.798l-75.557 58.155v100.99h105z" fill="#474f54"/><path d="m302.655 307.665h-46.655-46.655c-4.113 24.32-13.654 36.308-27.045 44.026l73.7 119.319 75.557-118.154c-14.416-7.669-24.593-19.715-28.902-45.191z" fill="#ffb3b3"/><path d="m302.655 307.665h-46.655v163.345l75.557-118.154c-14.416-7.669-24.593-19.715-28.902-45.191z" fill="#f99"/><path d="m326.942 95.878c-21.925-11.274-48.342-10.519-70.942 5.83-22.621-16.364-49.03-17.119-70.942-5.83-21.152 10.913-33.882 31.23-34.058 54.448v75.674c0 57.592 46.597 104.859 105 104.956.059 0 .117.015.176.015 60.504 0 104.824-50.089 104.824-108.53v-72.231c-.176-23.102-12.905-43.419-34.058-54.332z" fill="#fcc"/><path d="m361 222.44v-72.231c-.176-23.101-12.905-43.418-34.058-54.331-21.926-11.273-48.341-10.52-70.942 5.83v229.248c.059 0 .117.015.176.015 60.503 0 104.824-50.088 104.824-108.531z" fill="#ffb3b3"/><path d="m346 166h-90-90c-8.291 0-15 6.709-15 15 0 33.091 26.909 60 60 60 18.007 0 33.995-8.134 45-20.729 11.005 12.595 26.993 20.729 45 20.729 33.091 0 60-26.909 60-60 0-8.291-6.709-15-15-15z" fill="#474f54"/><path d="m361 181c0-8.291-6.709-15-15-15h-90v54.271c11.005 12.595 26.993 20.729 45 20.729 33.091 0 60-26.909 60-60z" fill="#32393f"/><path d="m61 497c0 8.291 6.709 15 15 15h75v-148.347c-55.622 16.687-90 41.31-90 133.347z" fill="#474f54"/><path d="m361 363.653v148.347h75c8.291 0 15-6.709 15-15 0-96.196-38.625-117.934-90-133.347z" fill="#32393f"/></g></svg>