<svg id="Layer_1" enable-background="new 0 0 497 497" height="512" viewBox="0 0 497 497" width="512" xmlns="http://www.w3.org/2000/svg"><g><g><path d="m103.372 329.968v68.816c0 16.569 13.431 30 30 30h115.128v-98.816z" fill="#4c5699"/><path d="m393.628 329.968h-145.128v98.816h115.128c16.569 0 30-13.431 30-30z" fill="#676fb2"/></g><g><path d="m359.539 448.781c-8.813-20.212-22.883-37.402-40.333-49.998h-19.983l-10-15.801h-40.723l-60.537 60.538v53.48h60.537 121.073c0-17.131-3.588-33.436-10.034-48.219z" fill="#fed2a4"/><path d="m289.222 382.983c-12.777-4.578-26.499-7.057-40.723-7.057-14.249 0-27.952 2.485-40.707 7.057l-10 15.801h-19.998c-17.499 12.633-31.551 29.854-40.334 49.999-6.446 14.783-10.034 31.087-10.034 48.218h60.536c3.109-19.045 9.96-36.866 19.83-52.64 18.309-29.26 47.038-51.46 81.43-61.378z" fill="#ffbd86"/></g><g><path d="m319.205 398.783c-9.277-6.698-19.375-12-29.983-15.801v61.377h-80.898-.531-19.83v52.641h141.234v-.014c0-35.101-3.551-65.721-9.992-98.203z" fill="#ff8e9e"/><path d="m207.793 382.983c-10.612 3.801-20.697 9.086-29.998 15.801-6.35 31.92-10.008 62.782-10.008 98.216h20.176c3.109-19.045 9.96-36.866 19.83-52.64z" fill="#ea5b70"/></g><g><g fill="#ffbd86"><path d="m103.372 207.547c-19.927 0-36.081 16.154-36.081 36.081s16.154 36.081 36.081 36.081 36.081-16.154 36.081-36.081c0-18.43-13.817-33.616-31.658-35.797-1.449-.177-2.925-.284-4.423-.284z"/><path d="m393.628 207.547c-1.584 0-3.144.086-4.674.284-17.719 2.292-31.408 17.454-31.408 35.797 0 19.927 16.154 36.081 36.081 36.081s36.081-16.154 36.081-36.081-16.153-36.081-36.08-36.081z"/></g><g><path d="m103.372 267.547c-22.091 0-40 24.624-40 55s17.909 55 40 55 40-24.624 40-55c0-29.456-16.841-53.504-38.006-54.933-.66-.044-1.325-.067-1.994-.067z" fill="#ffb357"/><path d="m393.628 267.547c-.756 0-1.507.029-2.252.086-21.044 1.606-37.748 25.578-37.748 54.914 0 30.376 17.909 55 40 55s40-24.624 40-55-17.909-55-40-55z" fill="#ffce71"/></g><g><path d="m248.372 177.832c-19.402 40.212-54.414 69.675-95.712 82.563v40.427l70.647 82.161h65.915c52.685-15.441 92.934-60.23 102.153-115.349-60.954-.001-116.526-34.899-143.003-89.802z" fill="#fed2a4"/><path d="m152.66 260.394h-24.186l-23.107 7.22c9.23 55.207 49.603 100 102.426 115.368 12.876 3.746 26.493 5.517 40.578 5.517 16.146 0 33.157-3.262 40.851-5.517-70.243-1.744-127.574-54.564-136.562-122.588z" fill="#ffbd86"/></g><g><path d="m388.954 207.832c-13.975-55.247-59.677-97.846-116.573-107.338h-46.045l-107.987 125.589 34.311 34.311c41.299-12.888 76.311-42.35 95.712-82.563 26.476 54.904 82.049 89.802 143.003 89.802 1.313-7.853 1.997-15.915 1.997-24.132 0-12.303-1.533-24.263-4.418-35.669z" fill="#676fb2"/><path d="m151.439 243.501c0-71.894 52.302-131.555 120.943-143.007-7.818-1.304-15.822-1.994-24.01-1.994-67.766 0-124.676 46.505-140.575 109.332-2.889 11.416-4.424 23.356-4.424 35.67 0 8.212.683 16.268 1.994 24.113 16.303 0 32.214-2.513 47.293-7.22-.732-5.536-1.15-11.176-1.221-16.894z" fill="#4c5699"/></g></g><g><g><g><g><ellipse cx="168.943" cy="295.167" fill="#ff8e9e" rx="29.355" ry="23.377"/></g><g><ellipse cx="328.057" cy="295.167" fill="#ff8e9e" rx="29.355" ry="23.377"/></g></g></g></g><g><path d="m197.293 423.149h-15v21.21 21.21h15c8.729-3.096 15-11.432 15-21.21s-6.271-18.114-15-21.21z" fill="#ffce71"/><g fill="#ffb357"><path d="m182.293 444.359c0-9.778 6.271-18.114 15-21.21-2.347-.833-4.871-1.29-7.5-1.29-12.407 0-22.5 10.093-22.5 22.5s10.093 22.5 22.5 22.5c2.629 0 5.153-.458 7.5-1.29-8.729-3.096-15-11.432-15-21.21z"/><circle cx="189.793" cy="444.36" r="7.5"/></g></g><g><path d="m314.722 423.149h-15v21.21 21.21h15c8.729-3.096 15-11.432 15-21.21s-6.27-18.114-15-21.21z" fill="#ffce71"/><g fill="#ffb357"><path d="m299.722 444.359c0-9.778 6.271-18.114 15-21.21-2.347-.833-4.871-1.29-7.5-1.29-12.407 0-22.5 10.093-22.5 22.5s10.093 22.5 22.5 22.5c2.629 0 5.153-.458 7.5-1.29-8.729-3.096-15-11.432-15-21.21z"/><circle cx="307.222" cy="444.36" r="7.5"/></g></g><g><path d="m263.687 10.422c-5.493-13.896-25.137-13.896-30.63 0-3.242 8.203-6.61 17.188-9.681 26.253-7.476-6.522-14.713-12.409-20.43-16.944-11.705-9.288-28.717.534-26.526 15.315 1.022 6.896 2.222 14.255 3.603 21.672-9.818-1.932-19.116-3.426-26.39-4.503-14.781-2.191-24.603 14.821-15.315 26.526 2.814 3.546 5.792 7.225 8.876 10.938-20.756 3.754-46.784 13.388-62.483 19.596-13.896 5.493-13.896 25.137 0 30.63 25.263 9.986 57.938 21.173 77.527 21.173l114.409-32.657c5.132-11.032 8.213-25.118 8.213-40.472 0-21.34-13.326-57.681-21.173-77.527z" fill="#55dafe"/><path d="m412.288 109.275c-15.699-6.208-41.727-15.842-62.483-19.596 3.084-3.713 6.062-7.392 8.876-10.938 9.288-11.705-.534-28.717-15.315-26.526-7.179 1.063-16.331 2.533-26.008 4.429 1.494-8.025 2.686-15.518 3.587-21.596 2.191-14.781-14.821-24.603-26.526-15.315-12.483 9.905-26.599 21.813-38.114 33.389-8.115 8.158-14.938 16.152-18.986 23.164-7.676 13.296-12.052 27.035-13.125 39.155l110.568 45.637c19.588 0 52.263-11.188 77.527-21.173 13.896-5.493 13.896-25.137-.001-30.63z" fill="#7ce3ff"/></g><g><path d="m388.954 207.832c-15.681-93.156-69.665-150.274-132.649-154.711l-40.111 24.398v82.74l32.179 17.573c47.424-.001 94.849 9.999 140.581 30z" fill="#ffce71"/><path d="m256.305 53.121c-2.634-.186-5.266-.289-7.93-.289-66.351 0-124.242 57.948-140.579 155 45.73-20 93.153-30 140.576-30-28.917-37.726-25.509-90.99 7.933-124.711z" fill="#ffb357"/></g><g><path d="m275.509 127.687 5.731-5.731c3.014-3.014 3.014-7.9 0-10.913l-5.731-5.731v-8.105c0-4.262-3.455-7.717-7.717-7.717h-8.105l-5.731-5.731c-3.014-3.014-7.9-3.014-10.913 0l-5.731 5.731h-8.105c-4.262 0-7.717 3.455-7.717 7.717v8.105l-5.731 5.731c-3.014 3.014-3.014 7.9 0 10.913l5.731 5.731v8.105c0 4.262 3.455 7.717 7.717 7.717h8.105l5.731 5.731c3.014 3.014 7.9 3.014 10.913 0l5.731-5.731h8.105c4.262 0 7.717-3.455 7.717-7.717z" fill="#fce3a0"/><g><circle cx="248.5" cy="116.5" fill="#ffce71" r="15"/></g></g><g fill="#313d40"><path d="m186.051 257.163c-4.142 0-7.5 3.358-7.5 7.5v8c0 4.142 3.358 7.5 7.5 7.5s7.5-3.358 7.5-7.5v-8c0-4.142-3.358-7.5-7.5-7.5z"/><path d="m310.949 257.163c-4.142 0-7.5 3.358-7.5 7.5v8c0 4.142 3.358 7.5 7.5 7.5s7.5-3.358 7.5-7.5v-8c0-4.142-3.358-7.5-7.5-7.5z"/><path d="m269.892 266.652c-3.123-2.721-7.861-2.396-10.582.727-5.725 6.57-15.901 6.564-21.62 0-2.722-3.123-7.459-3.448-10.582-.727-3.123 2.722-3.448 7.459-.727 10.582 11.705 13.43 32.544 13.416 44.237 0 2.722-3.123 2.397-7.86-.726-10.582z"/></g></g></svg>