<svg id="Capa_1" enable-background="new 0 0 512 512" height="512" viewBox="0 0 512 512" width="512" xmlns="http://www.w3.org/2000/svg"><g><g><path d="m512 256.327c0 90.803-47.281 170.567-118.565 216.016-39.705 25.315-86.858-1.847-137.435-1.847-52.815 0-101.894 25.838-142.657-1.57-67.94-45.678-112.783-123.062-113.333-210.949.89 69.93 57.85 55.808 127.99 55.808 70.69 0 128-52.589 128-123.279s57.31-88.256 128-88.256c70.14 0 127.1 82.497 127.99 152.427.01.55.01 1.1.01 1.65z" fill="#ccf49f"/><path d="m511.99 254.677c-.89-69.93-57.85-126.35-127.99-126.35-70.69 0-128 57.31-128 128s-57.31 128-128 128c-70.14 0-127.1-56.42-127.99-126.35-.01-.55-.01-1.1-.01-1.65 0-141.38 114.61-256 256-256 140.83 0 255.11 113.73 255.99 254.35z" fill="#95d6a4"/><circle cx="383.995" cy="257.908" fill="#95d6a4" r="44.932"/><circle cx="128" cy="257.908" fill="#ccf49f" r="44.932"/></g><g><g fill="#ffddce"><path d="m186.176 383.015-21.812-2.116-.726-23.201 44.535-39.649 22.539 25.317z"/><path d="m324.873 383.015 21.812-2.116.727-23.201-44.536-39.649-22.538 25.317z"/><path d="m205.851 451.41h99.345v31.363h-99.345z"/><path d="m217.908 316.437h75.231v70.248h-75.231z"/></g><circle cx="343.456" cy="41.884" fill="#3342aa" r="41.56"/><path d="m357.593 80.977c-4.414 1.595-9.181 2.467-14.142 2.467-22.952 0-41.555-18.612-41.555-41.564s18.603-41.555 41.555-41.555c4.961 0 9.728.872 14.142 2.467-15.988 5.787-27.422 21.097-27.422 39.088 0 17.99 11.434 33.31 27.422 39.097z" fill="#242e7a"/><path d="m355.019 84.882c-2.17 0-4.348-.757-6.108-2.3l-47.635-41.748c-3.852-3.376-4.238-9.235-.862-13.086 3.376-3.852 9.235-4.238 13.086-.862l47.635 41.748c3.852 3.376 4.238 9.235.862 13.086-1.833 2.092-4.399 3.162-6.978 3.162z" fill="#dd636e"/><circle cx="168.686" cy="41.884" fill="#3342aa" r="41.56"/><path d="m182.823 80.982c-4.414 1.595-9.181 2.467-14.142 2.467-22.952 0-41.555-18.612-41.555-41.564s18.603-41.555 41.555-41.555c4.961 0 9.728.872 14.142 2.467-15.988 5.787-27.422 21.097-27.422 39.088 0 17.99 11.435 33.31 27.422 39.097z" fill="#242e7a"/><path d="m157.122 84.882c2.17 0 4.348-.757 6.108-2.3l47.635-41.748c3.852-3.376 4.238-9.235.862-13.086s-9.235-4.238-13.086-.862l-47.635 41.748c-3.852 3.376-4.238 9.235-.862 13.086 1.833 2.092 4.4 3.162 6.978 3.162z" fill="#dd636e"/><path d="m256.071 22.14c-63.467 0-114.917 51.45-114.917 114.916v55.511c0 63.467 51.45 114.916 114.916 114.916 63.467 0 114.916-51.45 114.916-114.916v-55.511c.001-63.466-51.448-114.916-114.915-114.916z" fill="#3342aa"/><path d="m282.549 304.426c-8.504 2.003-17.36 3.06-26.476 3.06-63.468 0-114.918-51.45-114.918-114.918v-55.512c0-63.468 51.45-114.918 114.918-114.918 9.116 0 17.972 1.057 26.476 3.06-50.708 11.954-88.452 57.496-88.452 111.858v55.512c0 54.362 37.744 99.905 88.452 111.858z" fill="#242e7a"/><g><circle cx="167.614" cy="202.321" fill="#ffcbbe" r="30.549"/><circle cx="167.614" cy="202.321" fill="#eaac9d" r="16.391"/><circle cx="344.52" cy="202.321" fill="#ffcbbe" r="30.549"/><circle cx="344.52" cy="202.321" fill="#eaac9d" r="16.391"/></g><path d="m229.661 276.024h52.813v68.631h-52.813z" fill="#ffddce"/><path d="m234.072 320.998h-4.411v-44.976h19.988v29.399c.001 8.603-6.974 15.577-15.577 15.577z" fill="#ffcbbe"/><path d="m282.474 276.024v28.433c-7.255 1.974-14.888 3.027-22.766 3.027h-7.282c-7.878 0-15.511-1.053-22.766-3.027v-28.433z" fill="#ffcbbe"/><path d="m346.358 142.565v69.354c0 42.687-30.858 78.164-71.497 85.335-4.914.867-9.981 1.324-15.153 1.324h-7.267c-47.858 0-86.659-38.801-86.659-86.659v-69.354c16.934 0 29.458-10 37.648-19.734 7.762-9.229 11.619-18.21 11.619-18.21 29.641 29.649 89.832 37.944 131.309 37.944z" fill="#ffddce"/><path d="m274.89 297.245c-.01 0-.019 0-.029.009-4.914.867-9.981 1.324-15.153 1.324h-7.267c-47.858 0-86.659-38.801-86.659-86.659v-69.354c16.934 0 29.458-10 37.648-19.734v89.088c.001 42.668 30.84 78.145 71.46 85.326z" fill="#ffcbbe"/><path d="m275.991 218.537c0-6.395-9.164-11.579-20.469-11.579s-20.469 5.184-20.469 11.579" fill="#ffcbbe"/><path d="m256.067 255.68c-8.467 0-16.933-3.249-24.32-9.747-2.547-2.24-2.796-6.12-.555-8.667 2.239-2.547 6.12-2.795 8.667-.555 9.999 8.795 22.419 8.795 32.417 0 2.545-2.24 6.427-1.991 8.667.555 2.24 2.547 1.992 6.427-.555 8.667-7.387 6.498-15.854 9.747-24.321 9.747z" fill="#eaafa5"/><g><path d="m318.396 393.586-13.2-39.988v-36.58c0-3.356-2.721-6.077-6.077-6.077h-5.979c-3.356 0-6.077 2.721-6.077 6.077v22.592c0 15.495-12.561 28.056-28.056 28.056h-6.966c-15.495 0-28.056-12.561-28.056-28.056v-22.592c0-3.356-2.721-6.077-6.077-6.077h-5.979c-3.356 0-6.077 2.721-6.077 6.077v36.58l-13.2 39.988c-2.919 8.843.453 18.546 8.228 23.672l4.973 3.279v30.876h99.345v-30.876l4.973-3.279c7.772-5.126 11.144-14.829 8.225-23.672z" fill="#dd636e"/><path d="m228.172 420.537v30.877h-22.318v-30.877l-4.974-3.281c-7.773-5.132-11.142-14.826-8.229-23.669l13.203-39.996v-36.574c0-3.36 2.72-6.08 6.08-6.08h5.974c3.36 0 6.08 2.72 6.08 6.08v22.59c0 5.334 1.491 10.326 4.079 14.572l-7.167 39.408c-1.606 8.843.254 18.537 4.536 23.669z" fill="#c63d4f"/></g><path d="m219.483 420.537h85.713v13.25h-85.713z" fill="#c63d4f"/><path d="m228.175 451.41v34.963c-7.553-.857-15-2.067-22.324-3.6v-31.363z" fill="#ffcbbe"/><g><circle cx="195.089" cy="230.638" fill="#eaac9d" r="5.384"/><circle cx="211.448" cy="230.638" fill="#ffcbbe" r="5.384"/><circle cx="203.643" cy="244.178" fill="#eaac9d" r="5.384"/></g><g fill="#ffcbbe"><circle cx="317.052" cy="230.638" r="5.384"/><circle cx="300.693" cy="230.638" r="5.384"/><circle cx="308.499" cy="244.178" r="5.384"/></g><g><path d="m393.43 472.334c-28.16 17.96-60.08 30.56-94.3 36.36l-58.71-38.2 118.17-20.08c15.92-2.71 30.66 7.24 34.84 21.92z" fill="#dd636e"/><path d="m346.29 495.934c-15.08 5.69-30.86 10-47.16 12.76-1.5.25-3 .5-4.51.72l-54.2-13.48z" fill="#c63d4f"/></g><g><path d="m263.78 470.494v41.18h-26.06c-46.3-3.26-89.2-18.84-125.45-43.48 5.55-12.35 18.96-20.23 33.34-17.78z" fill="#dd636e"/><path d="m263.78 495.934v15.74h-26.06c-25.18-1.77-49.36-7.19-72-15.74z" fill="#c63d4f"/><path d="m303.71 511.676h-39.933v-41.18l7.286-2.284c5.213-1.635 10.702 1.57 11.842 6.913l.582 2.731 24.668 9.212c4.968 1.855 8.261 6.6 8.261 11.903 0 7.016-5.689 12.705-12.706 12.705z" fill="#ffddce"/><path d="m316.42 498.978c0 3.505-1.425 6.676-3.723 8.975-2.298 2.298-5.47 3.723-8.986 3.723h-39.932v-15.732h39.932c3.516 0 6.688-1.425 8.986-3.723.356-.356.689-.724.988-1.115 1.735 2.195 2.735 4.942 2.735 7.872z" fill="#ffcbbe"/></g><g fill="#eaac9d"><path d="m214.745 204.002c-8.467 0-16.933-3.249-24.32-9.747-2.547-2.24-2.796-6.12-.555-8.667 2.239-2.547 6.12-2.795 8.667-.555 9.999 8.795 22.419 8.795 32.417 0 2.545-2.24 6.427-1.991 8.667.555 2.24 2.547 1.992 6.427-.555 8.667-7.388 6.498-15.854 9.747-24.321 9.747z"/><path d="m297.397 204.002c-8.467 0-16.933-3.249-24.32-9.747-2.547-2.24-2.796-6.12-.555-8.667 2.24-2.547 6.12-2.795 8.667-.555 9.999 8.795 22.419 8.795 32.417 0 2.545-2.24 6.427-1.991 8.667.555 2.24 2.547 1.992 6.427-.555 8.667-7.388 6.498-15.854 9.747-24.321 9.747z"/></g><path d="m380.094 386.793-32.682-29.095-22.538 25.317 7.313 6.51-51.887 10.421v-.336c0-12.667-10.268-22.935-22.935-22.935h-1.838-.003-1.838c-12.667 0-22.936 10.268-22.936 22.935v.336l-51.886-10.422 7.313-6.51-22.538-25.317-32.682 29.095c-5.428 4.833-7.238 12.668-4.236 19.505 2.259 5.144 7.044 8.74 12.552 9.846l95.969 19.276s2.226.332 3.337.332c5.502 0 10.847-2.682 14.127-7.57 1.894-2.823 2.811-6.19 2.819-9.589.009 3.399.925 6.766 2.819 9.589 3.28 4.888 8.625 7.57 14.127 7.57 1.111 0 3.337-.332 3.337-.332l95.969-19.276c5.508-1.106 10.293-4.702 12.552-9.846 3.003-6.836 1.193-14.671-4.235-19.504z" fill="#ffddce"/><path d="m255.525 417.789v.763c0 3.415-.924 6.796-2.822 9.635-3.279 4.889-8.626 7.567-14.126 7.567-1.11 0-3.339-.331-3.339-.331l-95.966-19.278c-5.508-1.102-10.296-4.703-12.558-9.847-3-6.83-1.186-14.668 4.237-19.498l.076-.068c.11 1.974.568 3.957 1.407 5.855 2.263 5.144 7.042 8.745 12.55 9.847l95.975 19.278s2.22.33 3.339.33c4.083.001 8.091-1.482 11.227-4.253z" fill="#ffcbbe"/><path d="m380.099 386.8-.076-.068c-.11 1.974-.568 3.957-1.407 5.855-2.263 5.144-7.042 8.745-12.55 9.847l-95.975 19.278s-.876.056-1.906.114c-1.877.105-3.512-1.366-3.515-3.246 0-.011 0-.023 0-.034v-40.675c-2.288-.78-4.745-1.195-7.296-1.195h-1.847v41.113s-.001-.001-.002-.001v.763c0 3.415.924 6.796 2.822 9.635 3.279 4.889 8.626 7.567 14.126 7.567 1.11 0 3.339-.331 3.339-.331l95.966-19.278c5.508-1.102 10.296-4.703 12.558-9.847 3-6.829 1.186-14.667-4.237-19.497z" fill="#ffcbbe"/></g></g></svg>