<svg id="Capa_1" enable-background="new 0 0 510.616 510.616" height="512" viewBox="0 0 510.616 510.616" width="512" xmlns="http://www.w3.org/2000/svg"><g><g><path d="m456.768 292.311-95.86-66.29-63.793-44.743-51.909 248.802 10.102 73.041c1.6.01 3.21-.48 4.59-1.45l143.85-101.34c3.23-2.28 4.39-6.53 2.76-10.13l-22.6-49.93 71.85-34.85c5.24-2.54 5.8-9.8 1.01-13.11z" fill="#d7d0d6"/><path d="m315.838 424.252-132.634-220.971-29.996 20.32-99.36 68.71c-4.79 3.31-4.23 10.57 1.01 13.11l71.85 34.85-22.6 49.93c-1.63 3.6-.47 7.85 2.76 10.13l143.85 101.34c1.35.96 2.93 1.44 4.52 1.45h.07v-.091z" fill="#d7d0d6"/><g><path d="m175.119 280.917 18.569 48.574 61.62 173.63 61.62-173.63 20.646-48.574z" fill="#b5adb6"/></g><path d="m338.54 286.854c0 16.57-8.063 32.104-21.615 41.639l-16.059 11.3c-10.512 7.397-23.051 11.366-35.905 11.366h-19.308c-12.853 0-25.393-3.97-35.905-11.366l-16.059-11.3c-13.551-9.536-21.615-25.069-21.615-41.639v-136.685h166.466z" fill="#fff3de"/><path d="m364.549 94.516c0-28.604-12.004-55.895-33.089-75.225l-2.757-2.527c-10.509-9.635-25.799-11.962-38.699-5.891l-29.914 14.078c-3.029 1.425-6.535 1.425-9.564 0l-29.914-14.079c-12.9-6.071-28.19-3.744-38.699 5.891l-2.757 2.527c-21.084 19.33-33.089 46.621-33.089 75.225v84.28h218.482z" fill="#d7d0d6"/><g><path d="m259.014 154.477h-6.412-45.803v-4.308h-34.723v136.685c0 16.57 8.064 32.104 21.615 41.639l16.059 11.3c10.512 7.397 23.051 11.366 35.904 11.366h19.308c2.587 0 5.16-.168 7.707-.486-10.11-1.259-19.801-4.973-28.197-10.881l-16.058-11.299c-13.552-9.536-21.615-25.069-21.615-41.64v-14.578c0-4.967 3.497-9.237 8.362-10.24 15.095-3.113 27.946-12.432 35.76-25.166 2.22-3.618 7.531-3.665 9.748-.044 9.669 15.79 27.077 26.348 46.909 26.348h9.582c7.583 0 14.808-1.536 21.381-4.313v-104.383z" fill="#ffe5c2"/><path d="m194.456 243.174h9.582c19.316 0 34.975-15.659 34.975-34.975v-33.722h-79.533v33.722c.001 19.316 15.66 34.975 34.976 34.975z" fill="#b5adb6"/><path d="m317.16 243.174h-9.582c-19.316 0-34.975-15.659-34.975-34.975v-33.722h79.533v33.722c-.001 19.316-15.66 34.975-34.976 34.975z" fill="#b5adb6"/><g fill="#a79ba7"><path d="m190.158 208.199v-33.722h-30.677v33.722c0 19.316 15.659 34.975 34.975 34.975h9.583c3.676 0 7.231-.571 10.56-1.622-14.161-4.474-24.441-17.713-24.441-33.353z"/><path d="m303.279 208.199v-33.722h-30.677v33.722c0 19.316 15.659 34.975 34.975 34.975h9.583c3.676 0 7.234-.571 10.562-1.623-14.161-4.474-24.443-17.712-24.443-33.352z"/></g></g><g><path d="m359.962 134.477h-128.396c-20.497 0-37.113-16.616-37.113-37.113v-2.848c0-28.603 12.004-55.894 33.087-75.224l2.758-2.529c.327-.3.672-.571 1.009-.857l-10.695-5.034c-12.9-6.071-28.19-3.744-38.7 5.891l-2.757 2.527c-21.084 19.33-33.089 46.621-33.089 75.225v84.28h33.252 15.134 170.096v-44.581c-1.515.168-3.044.263-4.586.263z" fill="#c9bfc8"/><path d="m365.549 186.477h-219.482c-19.838 0-38.829-7.369-53.476-20.748l-12.15-11.1c-5.872-5.364-6.284-14.473-.92-20.344l2.158-2.362c5.364-5.872 14.472-6.284 20.344-.92l12.151 11.099c8.735 7.98 20.062 12.375 31.893 12.375h213.895c15.397 0 30.237-5.758 41.605-16.142l8.026-7.332c5.872-5.364 14.981-4.952 20.345.92l2.157 2.361c5.364 5.872 4.952 14.981-.92 20.345l-12.151 11.1c-14.646 13.379-33.637 20.748-53.475 20.748z" fill="#d7d0d6"/></g></g><path d="m461.031 286.142-102.05-70.568c.422-2.397.654-4.859.654-7.375v-14.222h5.914c21.715 0 42.502-8.065 58.533-22.71l12.151-11.1c8.915-8.145 9.542-22.024 1.397-30.94l-2.156-2.361c-3.945-4.319-9.337-6.843-15.181-7.108-5.838-.259-11.441 1.763-15.76 5.708l-8.026 7.332c-6.979 6.375-15.404 10.746-24.459 12.813v-51.096c0-6.641-.609-13.318-1.813-19.848-.751-4.074-4.666-6.769-8.734-6.017-4.074.75-6.768 4.661-6.018 8.735 1.038 5.635 1.564 11.398 1.564 17.13v52.461h-203.48v-52.461c0-26.431 11.174-51.834 30.657-69.697l2.757-2.527c8.301-7.611 20.248-9.428 30.438-4.633l29.913 14.079c5.07 2.386 10.883 2.386 15.953 0l29.913-14.079c10.188-4.795 22.138-2.977 30.438 4.633l2.757 2.527c7.743 7.099 14.213 15.391 19.229 24.645 1.974 3.642 6.525 4.996 10.168 3.02 3.642-1.974 4.993-6.526 3.02-10.167-5.811-10.721-13.307-20.328-22.279-28.554l-2.757-2.527c-12.809-11.742-31.241-14.548-46.964-7.149l-29.914 14.079c-1.008.476-2.168.476-3.176 0l-29.915-14.079c-15.722-7.398-34.153-4.593-46.961 7.149l-2.757 2.527c-22.574 20.696-35.521 50.129-35.521 80.753v51.749c-7.171-1.372-13.858-4.697-19.334-9.699l-12.151-11.1c-4.319-3.945-9.929-5.971-15.76-5.708-5.844.264-11.235 2.789-15.18 7.107l-2.158 2.363c-8.145 8.916-7.517 22.795 1.398 30.939l12.15 11.1c16.032 14.645 36.82 22.71 58.534 22.71h5.914v14.222c0 2.301.19 4.557.544 6.76l-56.5 39.072c-3.407 2.356-4.259 7.028-1.903 10.435 1.456 2.105 3.796 3.235 6.176 3.235 1.471 0 2.957-.432 4.259-1.332l53.217-36.8c1.883 3.22 4.171 6.175 6.804 8.784v48.501c0 17.952 8.296 34.887 22.323 45.916l55.246 153.683-130.957-92.256c-.287-.202-.391-.581-.246-.901l22.595-49.933c1.676-3.703.097-8.066-3.56-9.84l-71.891-34.871c-.019-.031-.024-.112.03-.172l19.715-13.633c3.407-2.356 4.259-7.028 1.903-10.435-2.355-3.406-7.026-4.259-10.435-1.903l-19.716 13.633c-4.469 3.091-6.888 8.171-6.472 13.588.417 5.417 3.584 10.067 8.473 12.438l65.274 31.663-19.584 43.279c-3.108 6.87-.891 15.007 5.273 19.349l143.854 101.341c2.663 1.877 5.783 2.815 8.904 2.814 3.12 0 6.242-.938 8.904-2.814l143.854-101.341c6.165-4.342 8.383-12.479 5.274-19.349l-19.584-43.28 65.273-31.663c4.89-2.371 8.057-7.021 8.474-12.438.419-5.415-2-10.495-6.469-13.586zm-116.396-77.943c0 15.15-12.325 27.475-27.476 27.475h-9.582c-15.15 0-27.476-12.325-27.476-27.475v-14.222h64.533v14.222zm-79.533-3.998c-6.148-1.244-12.466-1.208-18.588.109v-10.332h18.588zm-167.452-44.009-12.15-11.1c-2.81-2.566-3.007-6.939-.441-9.749l2.158-2.363c1.243-1.36 2.941-2.156 4.783-2.239.106-.005.213-.007.318-.007 1.726 0 3.365.635 4.646 1.806l12.151 11.099c10.121 9.246 23.243 14.337 36.951 14.337h213.896c17.31 0 33.882-6.43 46.663-18.104l8.026-7.332c1.36-1.242 3.12-1.88 4.965-1.798 1.842.083 3.54.878 4.783 2.24l2.157 2.361c2.566 2.809 2.368 7.183-.44 9.749l-12.151 11.1c-13.26 12.114-30.455 18.785-48.416 18.785h-219.482c-17.961 0-35.156-6.672-48.417-18.785zm133.864 33.785v14.222c0 15.15-12.325 27.475-27.476 27.475h-9.582c-15.15 0-27.476-12.325-27.476-27.475v-14.222zm-23.276 153.814c11.206 7.115 24.067 10.868 37.416 10.868h19.309c13.348 0 26.209-3.753 37.416-10.868l-47.07 130.94zm244.246-49.118-71.845 34.85c-3.656 1.774-5.235 6.137-3.56 9.84l22.595 49.933c.145.32.041.699-.246.902l-130.957 92.256 55.244-153.678c10.151-7.98 17.411-19.13 20.567-31.72 1.008-4.018-1.433-8.092-5.45-9.099-4.015-1.006-8.092 1.433-9.099 5.451-2.534 10.104-8.615 18.966-17.124 24.953l-16.059 11.3c-9.297 6.542-20.22 10-31.588 10h-19.309c-11.368 0-22.291-3.458-31.588-10l-16.059-11.3c-11.541-8.121-18.432-21.394-18.432-35.505v-38.876c4.634 1.739 9.647 2.697 14.881 2.697h9.582c19.142 0 35.361-12.731 40.651-30.168 7.116-2.846 14.976-2.942 22.166-.252 5.21 17.566 21.489 30.42 40.723 30.42h9.582c4.86 0 9.528-.831 13.881-2.341v18.936c0 4.142 3.357 7.5 7.5 7.5s7.5-3.358 7.5-7.5v-27.962c2.916-2.709 5.454-5.817 7.52-9.243l98.981 68.444c.013.029.007.11-.057.162z"/></g></svg>