<svg id="Capa_1" enable-background="new 0 0 512 512" height="512" viewBox="0 0 512 512" width="512" xmlns="http://www.w3.org/2000/svg"><g><g><g><path d="m144.882 233.776h222.236v70.711h-222.236z" fill="#2b3890"/></g><g><path d="m154.984 107.506v117.931c0 55.7 44.552 101.869 100.25 102.282 56.141.416 101.782-44.969 101.782-101.014v-119.199z" fill="#f1d0a5"/></g><g><path d="m334.793 107.506v119.199c0 52.034-39.344 94.872-89.905 100.405 3.65.4 7.356.611 11.112.611 55.79 0 101.016-45.227 101.016-101.016v-119.199z" fill="#f1b986"/></g><g><path d="m256.428 7.5c114.73 0 153.117 94.955 153.117 165.666 0 63.64-38.386 151.525-38.386 151.525 0-11.158-9.045-20.203-20.203-20.203l4.086-100.787c1.215-29.963-14.262-58.134-40.201-73.179l-18.295-10.611c-25.074-14.543-56.017-14.543-81.091 0l-18.295 10.611c-25.94 15.045-41.416 43.217-40.201 73.179l4.086 100.787c-11.158 0-20.203 9.045-20.203 20.203s-38.386-87.884-38.386-151.525c0-70.711 38.386-165.666 153.117-165.666h.855z" fill="#6b61b1"/></g><g><path d="m409.545 173.167c0-42.163-13.654-92.941-48.996-127.073 17.634 29.364 27.782 63.737 27.782 100.484 0 41.834-13.149 80.594-35.53 112.386l-1.846 45.525c11.158 0 20.203 9.045 20.203 20.203.001-.001 38.387-87.885 38.387-151.525z" fill="#5e54ac"/></g><g><g><path d="m304.488 233.776h-12.122c-11.158 0-20.203-9.045-20.203-20.203v-24.244h52.529v24.244c-.001 11.158-9.046 20.203-20.204 20.203z" fill="#8993da"/></g><g><path d="m207.512 233.776h12.122c11.158 0 20.203-9.045 20.203-20.203v-24.244h-52.529v24.244c.001 11.158 9.046 20.203 20.204 20.203z" fill="#8993da"/></g></g></g><g><path d="m417.626 504.5v-52.062c0-37.083-25.238-69.406-61.213-78.4l-60.007-15.002h-80.813l-60.007 15.002c-35.975 8.994-61.213 41.318-61.213 78.4v52.062z" fill="#6b61b1"/></g><g><path d="m366.751 377.381c12.898 14.436 20.571 33.413 20.571 53.844v73.275h30.305v-52.062c-.001-33.415-20.499-62.959-50.876-75.057z" fill="#5e54ac"/></g><g><g><path d="m357.016 504.5h-202.032c-16.737 0-30.305-13.568-30.305-30.305v-8.081c0-5.579 4.523-10.102 10.102-10.102h242.439c5.579 0 10.102 4.523 10.102 10.102v8.081c-.001 16.737-13.569 30.305-30.306 30.305z" fill="#a2aae2"/></g><g><path d="m377.22 456.012h-24.244c5.579 0 10.102 4.523 10.102 10.102v8.081c0 16.737-13.568 30.305-30.305 30.305h24.244c16.737 0 30.305-13.568 30.305-30.305v-8.081c-.001-5.579-4.523-10.102-10.102-10.102z" fill="#8993da"/></g><g><path d="m371.159 456.012h-230.318v-131.321c0-11.158 9.045-20.203 20.203-20.203h189.911c11.158 0 20.203 9.045 20.203 20.203v131.321z" fill="#a2aae2"/></g><g><path d="m353.986 304.739v123.999c0 5.579-4.523 10.102-10.102 10.102h-203.043v17.173h230.317v-131.322c.001-10.125-7.456-18.486-17.172-19.952z" fill="#8993da"/></g><g><circle cx="256" cy="381.26" fill="#f4fbff" r="22.224"/></g></g><g><path d="m292.366 241.276h12.122c15.275 0 27.703-12.428 27.703-27.703v-24.244c0-4.142-3.358-7.5-7.5-7.5h-52.528-32.325-52.528c-4.142 0-7.5 3.358-7.5 7.5v24.244c0 15.275 12.428 27.703 27.703 27.703h12.122c15.275 0 27.703-12.428 27.703-27.703v-16.744h17.325v16.744c0 15.276 12.427 27.703 27.703 27.703zm24.825-27.703c0 7.004-5.699 12.703-12.703 12.703h-12.122c-7.004 0-12.703-5.699-12.703-12.703v-16.744h37.528zm-84.854 0c0 7.004-5.699 12.703-12.703 12.703h-12.122c-7.004 0-12.703-5.699-12.703-12.703v-16.744h37.528z"/><path d="m378.659 374.685v-48.446c5.17-12.117 38.381-92.328 38.381-153.069 0-45.015-14.332-88.534-39.321-119.399-2.607-3.219-7.33-3.716-10.548-1.11-3.219 2.606-3.716 7.329-1.11 10.548 22.865 28.242 35.979 68.321 35.979 109.96 0 45.275-20.379 104.193-31.193 132.268-3.297-3.405-7.456-5.967-12.123-7.334l3.809-94.099c1.337-32.832-15.496-63.476-43.931-79.973l-18.291-10.611c-24.553-14.237-54.661-15.79-80.538-4.152-3.778 1.699-5.463 6.139-3.764 9.916 1.699 3.778 6.139 5.463 9.916 3.764 21.482-9.661 46.477-8.372 66.86 3.448l18.29 10.61c23.605 13.695 37.58 39.133 36.47 66.39l-2.044 50.481c-5.073 16.716-14.658 31.553-27.831 43.11h-122.891c-13.455-11.85-23.212-27.099-28.33-44.308l-1.995-49.283c-1.037-25.578 11.005-49.398 32.214-63.721 3.433-2.318 4.336-6.98 2.018-10.413s-6.98-4.337-10.413-2.018c-25.549 17.254-40.057 45.949-38.807 76.759l3.809 94.101c-4.667 1.366-8.826 3.928-12.123 7.334-10.813-28.075-31.193-86.993-31.193-132.268.001-58.747 30.668-158.17 145.611-158.17h.86c33.75 0 62.611 8.56 85.783 25.442 3.349 2.439 8.039 1.702 10.479-1.646 2.439-3.348 1.702-8.039-1.646-10.479-25.791-18.79-57.625-28.317-94.616-28.317h-.86c-53.643 0-97.082 20.533-125.623 59.378-22.235 30.263-34.987 71.739-34.987 113.792 0 60.741 33.211 140.953 38.381 153.07v48.446c-28.378 15.269-46.471 45.268-46.471 77.755v52.06c0 4.142 3.358 7.5 7.5 7.5h323.26c4.142 0 7.5-3.358 7.5-7.5v-52.06c0-32.488-18.094-62.487-46.471-77.756zm-276.789 77.755c0-24.15 12.043-46.643 31.471-60.183v56.326c-9.033.736-16.161 8.308-16.161 17.527v8.09c0 8.558 2.863 16.457 7.675 22.8h-22.985zm53.11 44.56c-12.572 0-22.8-10.228-22.8-22.8v-8.09c0-1.434 1.166-2.6 2.6-2.6h172.41c4.142 0 7.5-3.358 7.5-7.5s-3.358-7.5-7.5-7.5h-158.849v-123.819c0-7.004 5.699-12.703 12.703-12.703h189.911c7.004 0 12.703 5.699 12.703 12.703v123.819h-21.468c-4.142 0-7.5 3.358-7.5 7.5s3.358 7.5 7.5 7.5h35.03c1.434 0 2.6 1.167 2.6 2.6v8.09c0 12.572-10.228 22.8-22.8 22.8zm255.15 0h-22.985c4.812-6.343 7.675-14.242 7.675-22.8v-8.09c0-9.219-7.129-16.791-16.161-17.527v-56.326c19.429 13.54 31.471 36.033 31.471 60.183z"/><path d="m256 351.537c-16.39 0-29.724 13.334-29.724 29.724s13.334 29.723 29.724 29.723 29.724-13.334 29.724-29.724-13.334-29.723-29.724-29.723zm0 44.447c-8.119 0-14.724-6.605-14.724-14.724s6.605-14.724 14.724-14.724 14.724 6.605 14.724 14.724-6.605 14.724-14.724 14.724z"/></g></g></svg>