<?xml version="1.0" encoding="iso-8859-1"?>
<!-- Generator: Adobe Illustrator 19.0.0, SVG Export Plug-In . SVG Version: 6.00 Build 0)  -->
<svg version="1.1" id="Layer_1" xmlns="http://www.w3.org/2000/svg" xmlns:xlink="http://www.w3.org/1999/xlink" x="0px" y="0px"
	 viewBox="0 0 512 512" style="enable-background:new 0 0 512 512;" xml:space="preserve">
<circle style="fill:#00F8FE;" cx="256" cy="256" r="256"/>
<path style="fill:#00B7BE;" d="M511.995,256.353L340.021,84.378C307.699,49.136,255.996,53,255.996,53s-0.498-0.036-1.41-0.07
	c-0.001,0-0.003,0-0.004,0c-0.02-0.001-0.044-0.001-0.065-0.002c-4.295-0.155-17.547-0.221-33.374,3.656
	c-21.062,1.401-48.241,0.088-71.477-13.583c0,0,0.628,26.323,13.085,53.446c-10.867,17.187-17.615,41.1-15.9,74.377
	c-12.26,2.296-20.961,13.754-19.597,26.353l2.111,19.493c0.754,6.963,4.438,12.931,9.685,16.816l32.601,32.971
	c8.449,14.951,17.736,26.529,27.211,35.471l14.739,14.762v27.318l-25.771,0.017l-0.002-0.015h-16.15
	c-0.621,0-1.23,0.011-1.834,0.027h-0.172l0.001,0.002c-0.001,0-0.003,0-0.004,0c-0.67,0.01-1.33,0.04-1.98,0.09
	c-0.39,0.01-0.77,0.04-1.14,0.06c-0.05,0-0.1,0.01-0.15,0.01c-0.22,0.02-0.45,0.03-0.66,0.06h-0.1c-0.67,0.06-1.36,0.12-2.03,0.21
	c-0.14,0-0.27,0.02-0.41,0.05c-0.1,0-0.21,0.01-0.31,0.03c-0.03,0-0.08,0-0.12,0.01c-0.27,0.03-0.52,0.06-0.78,0.11
	c-0.12,0.01-0.22,0.03-0.33,0.04c-0.09,0.02-0.19,0.03-0.27,0.04c-0.46,0.06-0.91,0.14-1.36,0.21c-0.22,0.03-0.44,0.06-0.67,0.11
	c-0.06,0-0.12,0.01-0.16,0.03c-0.27,0.04-0.54,0.09-0.8,0.15c-0.13,0.01-0.25,0.04-0.37,0.07c-0.33,0.06-0.67,0.14-1,0.2
	c-0.33,0.07-0.67,0.15-0.99,0.21c-32.31,7.2-56.64,36.18-56.64,70.56v42.221c0.236,0.182,0.473,0.362,0.709,0.544
	c1.339,1.029,2.686,2.049,4.046,3.053C146.638,493.458,199.151,512,256,512C397.267,512,511.804,397.575,511.995,256.353z"/>
<rect x="213.6" y="311.94" style="fill:#FFC473;" width="84.79" height="106.98"/>
<rect x="256" y="311.94" style="fill:#FFAA20;" width="42.4" height="106.98"/>
<path style="fill:#FFDBA9;" d="M365.149,170.823C360.591,103.738,303.38,65.663,256,65.663s-104.591,38.075-109.149,105.16
	c-12.26,2.296-20.961,13.754-19.597,26.353l2.111,19.493c1.432,13.225,13.424,22.873,26.648,21.44l2.277-0.247
	c27.072,70.467,70.758,88.61,97.708,92.732c26.95-4.121,70.637-22.264,97.708-92.732l2.277,0.247
	c13.224,1.433,25.216-8.216,26.648-21.44l2.111-19.493C386.11,184.577,377.409,173.119,365.149,170.823z"/>
<g>
	<path style="fill:#FFC473;" d="M384.75,197.176l-2.113,19.497c-1.438,13.223-13.423,22.867-26.647,21.439l-2.285-0.248
		c-27.066,70.468-70.754,88.604-97.705,92.726V65.665c46.734,0,103.036,37.043,108.939,102.436c0.086,0.943,0.152,1.847,0.209,2.723
		C377.41,173.118,386.111,184.581,384.75,197.176z"/>
	<rect x="179.83" y="189.64" style="fill:#FFC473;" width="58.844" height="25.497"/>
</g>
<polygon style="fill:#FFA91F;" points="255.998,189.641 255.998,270.683 281.495,270.683 281.495,215.138 337.04,215.138 
	337.04,189.641 "/>
<path style="fill:#E1E1E3;" d="M412.6,416.29v42.23c-26.3,20.37-56.67,35.73-89.68,44.64c-7.86,2.13-15.87,3.88-24.01,5.25
	c-3.36,0.58-6.75,1.08-10.16,1.51c-1.71,0.22-3.42,0.42-5.14,0.6C274.54,511.5,265.33,512,256,512c-9.33,0-18.54-0.5-27.61-1.48
	c-1.72-0.18-3.43-0.38-5.14-0.6c-3.41-0.43-6.8-0.93-10.16-1.51c-8.14-1.37-16.15-3.12-24.01-5.25
	c-33.01-8.91-63.38-24.27-89.68-44.64v-42.23c0-34.38,24.33-63.36,56.64-70.56c0.32-0.06,0.66-0.14,0.99-0.21
	c0.33-0.06,0.67-0.14,1-0.2c0.12-0.03,0.24-0.06,0.37-0.07c0.26-0.06,0.53-0.11,0.8-0.15c0.04-0.02,0.1-0.03,0.16-0.03
	c0.23-0.05,0.45-0.08,0.67-0.11c0.45-0.07,0.9-0.15,1.36-0.21c0.08-0.01,0.18-0.02,0.27-0.04c0.11-0.01,0.21-0.03,0.33-0.04
	c0.26-0.05,0.51-0.08,0.78-0.11c0.04-0.01,0.09-0.01,0.12-0.01c0.1-0.02,0.21-0.03,0.31-0.03c0.14-0.03,0.27-0.05,0.41-0.05
	c0.67-0.09,1.36-0.15,2.03-0.21h0.1c0.21-0.03,0.44-0.04,0.66-0.06c0.05,0,0.1-0.01,0.15-0.01c0.37-0.02,0.75-0.05,1.14-0.06
	c0.65-0.05,1.31-0.08,1.98-0.09c0.66-0.02,1.33-0.03,2.01-0.03h41.93L256,408.67c0,0,42.39-64.42,42.39-64.66h41.93
	c0.57,0,1.14,0.01,1.69,0.03h0.32c0.12,0,0.25,0,0.37,0.01c0.07,0,0.15,0,0.22,0.02c0.47,0,0.93,0.03,1.39,0.06
	c0.39,0.01,0.77,0.04,1.14,0.06c0.05,0,0.1,0.01,0.15,0.01c0.22,0.02,0.45,0.03,0.66,0.06h0.1c0.69,0.05,1.36,0.12,2.03,0.21
	c0.14,0,0.27,0.02,0.41,0.05c0.1,0,0.21,0.01,0.31,0.03c0.03,0,0.08,0,0.12,0.01c0.27,0.03,0.52,0.06,0.78,0.11
	c0.12,0.01,0.22,0.03,0.33,0.04c0.09,0.02,0.16,0.02,0.24,0.04h0.03c0.68,0.09,1.36,0.2,2.03,0.32l0.16,0.03
	c0.27,0.04,0.54,0.09,0.8,0.15c0.41,0.07,0.83,0.16,1.24,0.24c0.25,0.04,0.5,0.1,0.74,0.16c0.14,0.02,0.26,0.05,0.38,0.08
	C388.27,352.93,412.6,381.91,412.6,416.29z"/>
<path style="fill:#FFA91F;" d="M273.76,455.5l9.85,55.02C274.54,511.5,265.33,512,256,512c-9.33,0-18.54-0.5-27.61-1.48l9.85-55.02
	l-17.09-46.83h69.7L273.76,455.5z"/>
<path style="fill:#E67500;" d="M273.76,455.5l9.85,55.02C274.54,511.5,265.33,512,256,512V408.67h34.85L273.76,455.5z"/>
<g>
	<polygon style="fill:#FFFFFF;" points="213.614,344.008 169.673,344.038 201.787,459 256,408.67 	"/>
	<polygon style="fill:#FFFFFF;" points="298.386,344.008 342.327,344.038 310.212,459 256,408.67 	"/>
</g>
<path style="fill:#005FD2;" d="M213.09,508.41c-8.14-1.37-16.15-3.12-24.01-5.25c-33.01-8.91-63.38-24.27-89.68-44.64v-42.23
	c0-34.38,24.33-63.36,56.64-70.56c0.32-0.06,0.66-0.14,0.99-0.21c0.33-0.06,0.67-0.14,1-0.2c0.12-0.03,0.24-0.06,0.37-0.07
	c0.26-0.06,0.53-0.11,0.8-0.15c0.04-0.02,0.1-0.03,0.16-0.03c0.23-0.05,0.45-0.08,0.67-0.11c0.45-0.07,0.9-0.15,1.36-0.21
	c0.08-0.01,0.18-0.02,0.27-0.04c0.11-0.01,0.21-0.03,0.33-0.04c0.26-0.05,0.51-0.08,0.78-0.11c0.04-0.01,0.09-0.01,0.12-0.01
	c0.1-0.02,0.21-0.03,0.31-0.03c0.14-0.03,0.27-0.05,0.41-0.05c0.67-0.09,1.36-0.15,2.03-0.21h0.1c0.21-0.03,0.44-0.04,0.66-0.06
	c0.05,0,0.1-0.01,0.15-0.01c0.37-0.02,0.75-0.05,1.14-0.06c0.65-0.05,1.31-0.08,1.98-0.09c0.66-0.02,1.33-0.03,2.01-0.03h16.15
	L213.09,508.41z"/>
<path style="fill:#003D8D;" d="M223.25,509.92c-3.41-0.43-6.8-0.93-10.16-1.51c-8.14-1.37-16.15-3.12-24.01-5.25l-22.1-32.83
	l18.67-49.95l-25.33-18.88l19.5-57.49h15.89L223.25,509.92z"/>
<path style="fill:#004EB1;" d="M412.6,416.29v42.23c-26.3,20.37-56.67,35.73-89.68,44.64c-7.86,2.13-15.87,3.88-24.01,5.25
	l25.26-164.4h16.15c0.57,0,1.14,0.01,1.69,0.03h0.32c0.12,0,0.25,0,0.37,0.01c0.07,0,0.15,0,0.22,0.02c0.47,0,0.93,0.03,1.39,0.06
	c0.39,0.01,0.77,0.04,1.14,0.06c0.05,0,0.1,0.01,0.15,0.01c0.22,0.02,0.45,0.03,0.66,0.06h0.1c0.69,0.05,1.36,0.12,2.03,0.21
	c0.14,0,0.27,0.02,0.41,0.05c0.1,0,0.21,0.01,0.31,0.03c0.03,0,0.08,0,0.12,0.01c0.27,0.03,0.52,0.06,0.78,0.11
	c0.12,0.01,0.22,0.03,0.33,0.04c0.09,0.02,0.16,0.02,0.24,0.04h0.03c0.68,0.09,1.36,0.2,2.03,0.32l0.16,0.03
	c0.27,0.04,0.54,0.09,0.8,0.15c0.41,0.07,0.83,0.16,1.24,0.24c0.25,0.04,0.5,0.1,0.74,0.16c0.14,0.02,0.26,0.05,0.38,0.08
	C388.27,352.93,412.6,381.91,412.6,416.29z"/>
<path style="fill:#002D6B;" d="M326.35,420.38l18.67,49.95l-22.1,32.83c-7.86,2.13-15.87,3.88-24.01,5.25
	c-3.36,0.58-6.75,1.08-10.16,1.51l27.54-165.91h15.89l19.5,57.49L326.35,420.38z"/>
<path style="fill:#9A4C00;" d="M255.996,53c0,0-0.498-0.036-1.41-0.07c-0.001,0-0.003,0-0.004,0
	c-0.02-0.001-0.044-0.001-0.065-0.002c-4.295-0.155-17.547-0.221-33.374,3.656c-21.062,1.401-48.241,0.088-71.477-13.583
	c0,0,0.628,26.323,13.085,53.446c-10.867,17.187-17.615,41.1-15.9,74.377L150,221h14.333c0,0,0-17.25,0.833-33.333
	c0.929-17.931,7.049-39.516,23.787-55.429C204.424,145.591,225.967,155,256,155c36.305,0,59.716-6.56,74.681-14.204
	c11.027,14.586,15.374,31.987,16.145,46.871C347.66,203.75,347.66,221,347.66,221h14.333l3.149-50.177
	C371.66,44.333,255.996,53,255.996,53z"/>
<path style="fill:#703700;" d="M365.14,170.82L361.99,221h-14.33c0,0,0-17.25-0.83-33.33c-0.77-14.89-5.12-32.29-16.15-46.87
	C315.72,148.44,292.3,155,256,155V53C256,53,371.66,44.33,365.14,170.82z"/>
<g>
</g>
<g>
</g>
<g>
</g>
<g>
</g>
<g>
</g>
<g>
</g>
<g>
</g>
<g>
</g>
<g>
</g>
<g>
</g>
<g>
</g>
<g>
</g>
<g>
</g>
<g>
</g>
<g>
</g>
</svg>
